<?xml version="1.0" encoding="UTF-8" standalone="no"?>
<!DOCTYPE svg PUBLIC "-//W3C//DTD SVG 1.1//EN" "http://www.w3.org/Graphics/SVG/1.1/DTD/svg11.dtd">
<svg width="100%" height="100%" viewBox="0 0 311 172" version="1.1" xmlns="http://www.w3.org/2000/svg" xmlns:xlink="http://www.w3.org/1999/xlink" xml:space="preserve" xmlns:serif="http://www.serif.com/" style="fill-rule:evenodd;clip-rule:evenodd;stroke-linejoin:round;stroke-miterlimit:2;">
    <path id="Leaf" d="M0.666,95.892c14.516,-16.582 22.657,-41.61 41.293,-53.389c17.36,-10.973 32.964,-24.765 51.751,-32.649c28.304,-11.879 60.228,-9.598 89.01,-5.917c26.947,3.447 48.437,23.156 73.081,33.264c17.338,7.11 52.719,30.066 52.719,30.066l2.45,103.93c-0,-0 -42.186,-46.187 -61.934,-70.14c-26.094,-31.652 -67.904,-29.876 -102.397,-43.485c-24.859,-9.807 -53.876,-10.441 -77.571,6.608c-21.606,15.547 -43.661,25.673 -68.402,31.712Z" style="fill:url(#_Linear1);"/>
    <defs>
        <linearGradient id="_Linear1" x1="0" y1="0" x2="1" y2="0" gradientUnits="userSpaceOnUse" gradientTransform="matrix(-277.42,-16.7092,16.7092,-277.42,281.955,113.848)"><stop offset="0" style="stop-color:rgb(49,134,43);stop-opacity:1"/><stop offset="0.16" style="stop-color:rgb(54,150,48);stop-opacity:1"/><stop offset="0.33" style="stop-color:rgb(59,166,53);stop-opacity:1"/><stop offset="0.82" style="stop-color:rgb(61,173,55);stop-opacity:1"/><stop offset="1" style="stop-color:rgb(49,134,43);stop-opacity:1"/></linearGradient>
    </defs>
</svg>
