<?xml version="1.0" encoding="UTF-8" standalone="no"?>
<!DOCTYPE svg PUBLIC "-//W3C//DTD SVG 1.1//EN" "http://www.w3.org/Graphics/SVG/1.1/DTD/svg11.dtd">
<svg width="100%" height="100%" viewBox="0 0 432 304" version="1.1" xmlns="http://www.w3.org/2000/svg" xmlns:xlink="http://www.w3.org/1999/xlink" xml:space="preserve" xmlns:serif="http://www.serif.com/" style="fill-rule:evenodd;clip-rule:evenodd;stroke-linejoin:round;stroke-miterlimit:2;">
    <g transform="matrix(1,0,0,1,-852,-2104)">
        <g transform="matrix(1.88698,0,0,1.88698,-1436.39,-916.48)">
            <g id="Leaf" transform="matrix(-0.284965,0.524949,0.556888,0.371433,1257.31,431.504)">
                <path d="M1799.89,841.428C1758.66,849.538 1716.46,852.249 1675.72,862.898C1664.82,865.749 1653.52,865.372 1642.4,866.751C1632.62,867.964 1623.59,873.695 1614.69,877.429C1604.95,881.514 1598.25,889.65 1592.51,898.226C1579.8,917.234 1574.3,939.976 1573.03,962.581C1571.7,986.314 1569.04,1010.63 1573.15,1034.24C1575.51,1047.8 1569.31,1063.01 1567.78,1076.46C1566.72,1085.76 1575.38,1126.12 1583.37,1138.27C1590.83,1149.62 1652.52,1171.36 1662.91,1178.04C1671.55,1183.6 1680.72,1188.32 1689.52,1193.63C1671.36,1175.95 1660.4,1151.44 1651.97,1127.78C1646.49,1112.4 1642.08,1096.51 1635.22,1081.65C1630.29,1070.99 1629.69,1058.52 1628.74,1047.01C1626.52,1020.43 1627.5,993.672 1625.61,967.05C1623.47,936.853 1639.36,903.05 1671.35,896.615C1716.91,887.448 1763.91,871.909 1799.89,841.428Z" style="fill:url(#_Linear1);"/>
            </g>
        </g>
    </g>
    <defs>
        <linearGradient id="_Linear1" x1="0" y1="0" x2="1" y2="0" gradientUnits="userSpaceOnUse" gradientTransform="matrix(110.962,-292.954,-319.557,-72.7237,1660.62,1155.38)"><stop offset="0" style="stop-color:rgb(49,134,43);stop-opacity:1"/><stop offset="0.37" style="stop-color:rgb(58,165,52);stop-opacity:1"/><stop offset="0.82" style="stop-color:rgb(61,173,55);stop-opacity:1"/><stop offset="1" style="stop-color:rgb(49,134,43);stop-opacity:1"/></linearGradient>
    </defs>
</svg>
