<?xml version="1.0" encoding="UTF-8" standalone="no"?>
<!DOCTYPE svg PUBLIC "-//W3C//DTD SVG 1.1//EN" "http://www.w3.org/Graphics/SVG/1.1/DTD/svg11.dtd">
<svg width="100%" height="100%" viewBox="0 0 432 348" version="1.1" xmlns="http://www.w3.org/2000/svg" xmlns:xlink="http://www.w3.org/1999/xlink" xml:space="preserve" xmlns:serif="http://www.serif.com/" style="fill-rule:evenodd;clip-rule:evenodd;stroke-linejoin:round;stroke-miterlimit:2;">
    <path id="Leaf" d="M0.567,116.234c0.936,-4.962 1.772,-9.998 3.212,-14.821c5.48,-18.346 19.08,-18.607 32.322,-26.583c22.476,-13.538 44.695,-28.841 69.689,-36.182c51.53,-15.14 102.553,-40.607 156.949,-38.252c26.945,1.17 51.851,16.537 70.247,37.593c14.25,16.31 25.365,35.915 40.872,50.937c23.834,23.086 37.99,56.95 47.33,89.696c13.062,45.797 9.4,121.988 10.205,169.025c-14.713,-11.374 -35.294,-51.446 -46.713,-66.961c-16.668,-22.646 -25.807,-54.284 -32.74,-82.13c-10.187,-40.921 -27.414,-83.108 -65.249,-100.197c-24.969,-11.276 -52.801,-11.562 -79.299,-13.514c-31.453,-2.315 -59.64,10.636 -90.258,15.149c-12.764,1.88 -25.636,1.083 -38.455,1.88c-23.636,1.464 -47.627,-16.558 -68.835,2.731c-3.613,3.286 -6.657,7.376 -9.277,11.629Z" style="fill:url(#_Linear1);"/>
    <defs>
        <linearGradient id="_Linear1" x1="0" y1="0" x2="1" y2="0" gradientUnits="userSpaceOnUse" gradientTransform="matrix(-420.011,-59.0242,59.0242,-420.011,424.606,221.857)"><stop offset="0" style="stop-color:rgb(49,134,43);stop-opacity:1"/><stop offset="0.16" style="stop-color:rgb(54,150,48);stop-opacity:1"/><stop offset="0.33" style="stop-color:rgb(59,166,53);stop-opacity:1"/><stop offset="0.82" style="stop-color:rgb(61,173,55);stop-opacity:1"/><stop offset="1" style="stop-color:rgb(49,134,43);stop-opacity:1"/></linearGradient>
    </defs>
</svg>
