<?xml version="1.0" encoding="UTF-8" standalone="no"?>
<!DOCTYPE svg PUBLIC "-//W3C//DTD SVG 1.1//EN" "http://www.w3.org/Graphics/SVG/1.1/DTD/svg11.dtd">
<svg width="100%" height="100%" viewBox="0 0 419 271" version="1.1" xmlns="http://www.w3.org/2000/svg" xmlns:xlink="http://www.w3.org/1999/xlink" xml:space="preserve" xmlns:serif="http://www.serif.com/" style="fill-rule:evenodd;clip-rule:evenodd;stroke-linejoin:round;stroke-miterlimit:2;">
    <g transform="matrix(1,0,0,1,-865,-1380)">
        <g transform="matrix(1.88698,0,0,1.88698,-1436.39,-916.48)">
            <g id="Leaf" transform="matrix(-0.368425,0.537578,0.489018,0.40501,1475.4,-33.7134)">
                <path d="M1772.95,813.211C1750.81,818.285 1728.19,820.554 1710.66,836.574C1693.27,852.462 1675.1,865.562 1660.75,884.582C1655.12,892.04 1649.15,898.783 1645.24,907.382C1635.38,929.072 1634.54,953.863 1631.18,977.093C1628.79,993.61 1629.69,1010.42 1627.18,1026.92C1625.21,1039.86 1620.48,1052.8 1615.96,1065.05C1608.95,1084.06 1610.82,1114.97 1608.93,1133.42C1617.13,1141.42 1620.1,1143.6 1628.87,1151.38C1643.52,1164.36 1672.14,1190.45 1688.09,1201.68C1676.76,1170.07 1664.09,1119.85 1661.65,1086.68C1660.44,1070.21 1667.43,1053.6 1669.17,1037.28C1671.61,1014.55 1669.85,991.655 1668.84,968.884C1668.28,956.092 1671.16,945.263 1675.8,933.188C1678.75,925.507 1681.53,917.066 1686.47,910.633C1692.87,902.315 1699.04,893.678 1706.42,886.184C1729.52,862.721 1749.87,836.686 1772.95,813.211Z" style="fill:url(#_Linear1);"/>
            </g>
        </g>
    </g>
    <defs>
        <linearGradient id="_Linear1" x1="0" y1="0" x2="1" y2="0" gradientUnits="userSpaceOnUse" gradientTransform="matrix(198.213,-299.989,-275.424,-176.946,1642.84,1163.09)"><stop offset="0" style="stop-color:rgb(49,134,43);stop-opacity:1"/><stop offset="0.16" style="stop-color:rgb(54,150,48);stop-opacity:1"/><stop offset="0.33" style="stop-color:rgb(59,166,53);stop-opacity:1"/><stop offset="0.82" style="stop-color:rgb(61,173,55);stop-opacity:1"/><stop offset="1" style="stop-color:rgb(49,134,43);stop-opacity:1"/></linearGradient>
    </defs>
</svg>
