<?xml version="1.0" encoding="UTF-8" standalone="no"?>
<!DOCTYPE svg PUBLIC "-//W3C//DTD SVG 1.1//EN" "http://www.w3.org/Graphics/SVG/1.1/DTD/svg11.dtd">
<svg width="100%" height="100%" viewBox="0 0 419 271" version="1.1" xmlns="http://www.w3.org/2000/svg" xmlns:xlink="http://www.w3.org/1999/xlink" xml:space="preserve" xmlns:serif="http://www.serif.com/" style="fill-rule:evenodd;clip-rule:evenodd;stroke-linejoin:round;stroke-miterlimit:2;">
    <path id="Leaf" d="M0.49,59.877c20.073,-18.579 37.892,-39.789 64.863,-45.332c26.75,-5.496 51.468,-13.913 79.001,-13.941c10.797,-0.012 21.167,-0.913 31.821,1.693c26.871,6.573 50.328,24.672 74.099,39.018c16.902,10.2 31.793,23.956 48.758,34.017c13.306,7.892 28.547,12.984 42.985,17.762c22.421,7.421 49.639,32.939 67.983,45.122c1.683,14.431 1.626,19.117 2.703,33.953c1.798,24.774 5.978,73.747 5.247,98.515c-21.287,-35.651 -58.823,-86.88 -87.732,-114.708c-14.359,-13.822 -34.543,-19.421 -50.815,-30.122c-22.673,-14.911 -42.575,-34.185 -62.888,-52.608c-11.411,-10.348 -23.404,-15.706 -37.774,-20.226c-9.14,-2.874 -18.861,-6.507 -28.235,-6.408c-12.12,0.128 -24.38,-0.213 -36.424,1.544c-37.711,5.501 -75.884,6.249 -113.592,11.721Z" style="fill:url(#_Linear1);"/>
    <defs>
        <linearGradient id="_Linear1" x1="0" y1="0" x2="1" y2="0" gradientUnits="userSpaceOnUse" gradientTransform="matrix(-414.621,-28.1978,28.1978,-414.621,413.795,195.292)"><stop offset="0" style="stop-color:rgb(49,134,43);stop-opacity:1"/><stop offset="0.16" style="stop-color:rgb(54,150,48);stop-opacity:1"/><stop offset="0.33" style="stop-color:rgb(59,166,53);stop-opacity:1"/><stop offset="0.82" style="stop-color:rgb(61,173,55);stop-opacity:1"/><stop offset="1" style="stop-color:rgb(49,134,43);stop-opacity:1"/></linearGradient>
    </defs>
</svg>
