<?xml version="1.0" encoding="UTF-8" standalone="no"?>
<!DOCTYPE svg PUBLIC "-//W3C//DTD SVG 1.1//EN" "http://www.w3.org/Graphics/SVG/1.1/DTD/svg11.dtd">
<svg width="100%" height="100%" viewBox="0 0 432 304" version="1.1" xmlns="http://www.w3.org/2000/svg" xmlns:xlink="http://www.w3.org/1999/xlink" xml:space="preserve" xmlns:serif="http://www.serif.com/" style="fill-rule:evenodd;clip-rule:evenodd;stroke-linejoin:round;stroke-miterlimit:2;">
    <path id="Leaf" d="M0.485,166.421c30.69,-35.151 56.233,-75.055 89.327,-107.944c8.862,-8.807 14.541,-20.263 21.968,-30.308c6.534,-8.838 17.41,-13.763 26.123,-19.966c9.529,-6.785 21.68,-7.718 33.778,-7.391c26.813,0.724 53.664,11.225 78.102,25.809c25.657,15.313 52.643,29.728 75.24,50.341c12.98,11.839 32.298,16.361 47.252,24.272c10.337,5.467 48.101,42.33 56.575,58.762c7.917,15.351 -2.415,91.69 -0.981,106.664c1.194,12.459 1.223,24.856 2.077,37.292c-8.819,-30.382 -28.686,-58.417 -49.014,-83.354c-13.214,-16.211 -27.543,-31.711 -39.46,-48.921c-8.554,-12.355 -21.34,-21.688 -32.918,-30.702c-26.748,-20.823 -55.388,-38.609 -82.348,-59.138c-30.583,-23.283 -74.648,-31.235 -98.609,-4.062c-34.133,38.707 -75.737,74.375 -127.112,88.646Z" style="fill:url(#_Linear1);"/>
    <defs>
        <linearGradient id="_Linear1" x1="0" y1="0" x2="1" y2="0" gradientUnits="userSpaceOnUse" gradientTransform="matrix(-367.514,-95.4125,95.4125,-367.514,405.291,248.513)"><stop offset="0" style="stop-color:rgb(49,134,43);stop-opacity:1"/><stop offset="0.37" style="stop-color:rgb(58,165,52);stop-opacity:1"/><stop offset="0.82" style="stop-color:rgb(61,173,55);stop-opacity:1"/><stop offset="1" style="stop-color:rgb(49,134,43);stop-opacity:1"/></linearGradient>
    </defs>
</svg>
