<?xml version="1.0" encoding="UTF-8" standalone="no"?>
<!DOCTYPE svg PUBLIC "-//W3C//DTD SVG 1.1//EN" "http://www.w3.org/Graphics/SVG/1.1/DTD/svg11.dtd">
<svg width="100%" height="100%" viewBox="0 0 342 204" version="1.1" xmlns="http://www.w3.org/2000/svg" xmlns:xlink="http://www.w3.org/1999/xlink" xml:space="preserve" xmlns:serif="http://www.serif.com/" style="fill-rule:evenodd;clip-rule:evenodd;stroke-linejoin:round;stroke-miterlimit:2;">
    <path id="Leaf" d="M0.854,58.793c16.422,-11.443 36.388,-33.006 62.472,-41.02c24.156,-7.421 43.886,-18.562 68.039,-17.583c29.353,1.191 54.609,3.951 90.26,9.437c23.605,3.633 45.47,22.905 72.634,36.831c15.705,8.051 29.096,24.918 46.988,38.567c-9.178,44.483 -5.947,70.137 -4.623,118.624c-13.736,-34.562 -42.452,-78.22 -61.012,-101.812c-20.585,-26.168 -62.984,-20.842 -93.306,-36.547c-25.956,-13.444 -61.822,-21.672 -85.738,-15.508c-41.085,10.589 -78.442,8.992 -95.714,9.011Z" style="fill:url(#_Linear1);"/>
    <defs>
        <linearGradient id="_Linear1" x1="0" y1="0" x2="1" y2="0" gradientUnits="userSpaceOnUse" gradientTransform="matrix(-309.936,-61.0973,61.0973,-309.936,329.807,127.641)"><stop offset="0" style="stop-color:rgb(49,134,43);stop-opacity:1"/><stop offset="0.16" style="stop-color:rgb(54,150,48);stop-opacity:1"/><stop offset="0.33" style="stop-color:rgb(59,166,53);stop-opacity:1"/><stop offset="0.82" style="stop-color:rgb(61,173,55);stop-opacity:1"/><stop offset="1" style="stop-color:rgb(49,134,43);stop-opacity:1"/></linearGradient>
    </defs>
</svg>
