<?xml version="1.0" encoding="UTF-8" standalone="no"?>
<!DOCTYPE svg PUBLIC "-//W3C//DTD SVG 1.1//EN" "http://www.w3.org/Graphics/SVG/1.1/DTD/svg11.dtd">
<svg width="100%" height="100%" viewBox="0 0 45 1997" version="1.1" xmlns="http://www.w3.org/2000/svg" xmlns:xlink="http://www.w3.org/1999/xlink" xml:space="preserve" xmlns:serif="http://www.serif.com/" style="fill-rule:evenodd;clip-rule:evenodd;stroke-linejoin:round;stroke-miterlimit:2;">
    <g transform="matrix(1,0,0,1,-1260,-575)">
        <g transform="matrix(1.88698,0,0,1.88698,-1436.39,-916.48)">
            <g id="Stalk" transform="matrix(0.258153,0,0,0.699905,1092.79,426.53)">
                <path d="M1351.23,894.164C1351.21,893.875 1351.87,893.659 1351.85,893.367C1345.8,790.194 1323.25,519.899 1323.25,519.899L1318.01,519.959C1318.01,519.959 1319.74,781.805 1320.44,893.439C1320.44,893.72 1321.03,893.873 1321.04,894.152C1321.04,894.415 1320.45,894.804 1320.45,895.066C1321.1,994.004 1328.33,1066.67 1330,1165.54C1330.01,1165.92 1330.83,1166.34 1330.83,1166.73C1330.84,1167.13 1330.03,1167.51 1330.04,1167.91C1331.93,1284.45 1329.98,1372.77 1328.84,1489.3C1328.83,1489.79 1329.87,1490.3 1329.86,1490.79C1329.86,1491.22 1328.81,1491.64 1328.81,1492.08C1328.12,1559.37 1324.46,1660.22 1321.87,1728.05C1321.83,1729.07 1323.75,1729.92 1323.71,1730.94C1323.67,1732.09 1321.66,1733.41 1321.61,1734.56C1320.02,1775.57 1318.03,1816.57 1315.6,1857.54C1312.46,1910.52 1307.71,1963.38 1303.88,2016.3C1303.5,2021.66 1308.99,2024.42 1313.07,2026.63C1316.83,2028.65 1321.56,2027.96 1325.36,2028.72C1332.92,2030.23 1336.28,2030.47 1344.06,2030.81C1352.75,2031.19 1355.57,2033.15 1363.87,2030.18C1367.14,2029.01 1373.92,2029.24 1381.18,2025.45C1385.44,2023.23 1385.68,2020.05 1385.72,2016.23C1386.52,1922.83 1390.09,1827.85 1392.17,1734.44C1392.19,1733.6 1390.11,1732.11 1390.12,1731.27C1390.15,1730.06 1392.4,1729.84 1392.42,1728.63C1394.12,1649.74 1394.73,1571.12 1391.25,1492.24C1391.23,1491.82 1390.29,1491.33 1390.27,1490.91C1390.25,1490.4 1391.14,1489.98 1391.12,1489.48C1386.21,1380.98 1374.7,1276.06 1366.3,1167.82C1366.27,1167.44 1365.77,1167.05 1365.74,1166.67C1365.71,1166.29 1366.16,1165.91 1366.13,1165.54C1359.24,1075.99 1357.15,984.533 1351.94,894.903C1351.93,894.681 1351.24,894.386 1351.23,894.164Z" style="fill:url(#_Linear1);"/>
            </g>
        </g>
    </g>
    <defs>
        <linearGradient id="_Linear1" x1="0" y1="0" x2="1" y2="0" gradientUnits="userSpaceOnUse" gradientTransform="matrix(74.9151,0,-0,34.9198,1311.25,1278.97)"><stop offset="0" style="stop-color:rgb(57,148,53);stop-opacity:1"/><stop offset="1" style="stop-color:rgb(28,78,25);stop-opacity:1"/></linearGradient>
    </defs>
</svg>
