<?xml version="1.0" encoding="UTF-8" standalone="no"?>
<!DOCTYPE svg PUBLIC "-//W3C//DTD SVG 1.1//EN" "http://www.w3.org/Graphics/SVG/1.1/DTD/svg11.dtd">
<svg width="100%" height="100%" viewBox="0 0 45 1997" version="1.1" xmlns="http://www.w3.org/2000/svg" xmlns:xlink="http://www.w3.org/1999/xlink" xml:space="preserve" xmlns:serif="http://www.serif.com/" style="fill-rule:evenodd;clip-rule:evenodd;stroke-linejoin:round;stroke-miterlimit:2;">
    <path id="Stalk" d="M23.913,494.306c-0.008,-0.382 0.312,-0.667 0.303,-1.052c-2.947,-136.262 -13.93,-493.243 -13.93,-493.243l-2.555,0.079c0,0 0.846,345.822 1.184,493.258c0.001,0.372 0.29,0.574 0.291,0.942c0.001,0.347 -0.287,0.861 -0.286,1.207c0.317,130.669 3.84,226.635 4.654,357.211c0.003,0.514 0.401,1.057 0.404,1.572c0.003,0.532 -0.389,1.036 -0.385,1.566c0.92,153.916 -0.032,270.56 -0.588,424.467c-0.002,0.643 0.503,1.315 0.501,1.96c-0.002,0.575 -0.512,1.125 -0.514,1.704c-0.336,88.872 -2.118,222.068 -3.382,311.644c-0.019,1.358 0.92,2.479 0.901,3.817c-0.022,1.519 -1.002,3.267 -1.023,4.786c-0.777,54.166 -1.746,108.311 -2.928,162.425c-1.529,69.962 -3.844,139.773 -5.709,209.671c-0.189,7.083 2.484,10.727 4.476,13.642c1.828,2.676 4.133,1.757 5.984,2.758c3.683,1.992 5.319,2.316 9.113,2.766c4.232,0.501 5.605,3.091 9.647,-0.837c1.592,-1.547 4.898,-1.245 8.434,-6.246c2.073,-2.932 2.193,-7.137 2.209,-12.171c0.39,-123.364 2.128,-248.794 3.143,-372.168c0.009,-1.109 -1.005,-3.081 -0.996,-4.191c0.013,-1.592 1.108,-1.888 1.121,-3.48c0.827,-104.191 1.121,-208.02 -0.575,-312.198c-0.009,-0.555 -0.465,-1.211 -0.475,-1.766c-0.011,-0.662 0.426,-1.223 0.415,-1.885c-2.392,-143.295 -7.998,-281.86 -12.089,-424.813c-0.015,-0.509 -0.261,-1.02 -0.275,-1.529c-0.014,-0.498 0.203,-0.995 0.188,-1.492c-3.354,-118.26 -4.374,-239.052 -6.911,-357.428c-0.006,-0.293 -0.341,-0.683 -0.347,-0.976Z" style="fill:url(#_Linear1);"/>
    <defs>
        <linearGradient id="_Linear1" x1="0" y1="0" x2="1" y2="0" gradientUnits="userSpaceOnUse" gradientTransform="matrix(36.4934,0,0,46.1189,4.4391,1002.53)"><stop offset="0" style="stop-color:rgb(57,148,53);stop-opacity:1"/><stop offset="1" style="stop-color:rgb(28,78,25);stop-opacity:1"/></linearGradient>
    </defs>
</svg>
