<?xml version="1.0" encoding="UTF-8" standalone="no"?>
<!DOCTYPE svg PUBLIC "-//W3C//DTD SVG 1.1//EN" "http://www.w3.org/Graphics/SVG/1.1/DTD/svg11.dtd">
<svg width="100%" height="100%" viewBox="0 0 145 407" version="1.1" xmlns="http://www.w3.org/2000/svg" xmlns:xlink="http://www.w3.org/1999/xlink" xml:space="preserve" xmlns:serif="http://www.serif.com/" style="fill-rule:evenodd;clip-rule:evenodd;stroke-linejoin:round;stroke-miterlimit:2;">
    <g id="Tassel">
        <path d="M86.587,389.283c0.695,-4.409 1.574,-8.736 1.969,-13.329c0.435,-5.048 0.275,-10.209 0.113,-15.295c-0.425,1.454 -1.324,4.569 -1.74,6.039c0.016,-0.14 0.031,-0.28 0.045,-0.42c0.473,-4.71 0.346,-9.57 0.24,-14.342c-0.625,1.953 -1.249,3.908 -1.868,5.869c0.101,-0.662 0.199,-1.384 0.266,-2.065c0.473,-4.784 0.291,-9.727 0.139,-14.56c-0.821,2.564 -1.649,5.117 -2.47,7.68c0.196,-1.213 0.376,-2.443 0.478,-3.709c0.374,-4.675 0.076,-9.455 -0.187,-14.116c-0.484,1.628 -0.972,3.251 -1.463,4.869c0.003,-0.029 0.005,-0.058 0.007,-0.086c0.355,-4.641 0.019,-9.378 -0.292,-13.982c-0.32,1.103 -0.642,2.204 -0.968,3.3c0.123,-4.423 -0.173,-8.851 -0.557,-13.188c-0.312,1.143 -0.626,2.283 -0.946,3.416c0.127,-4.847 -0.434,-9.611 -0.984,-14.277c-0.82,3.344 -1.682,6.611 -2.571,9.875c0.262,-1.775 0.492,-3.595 0.543,-5.46c0.135,-4.936 -0.528,-9.825 -1.09,-14.557c-0.631,2.708 -1.009,4.275 -1.68,6.944c0.112,-1.102 0.202,-2.219 0.222,-3.347c0.082,-4.847 -0.569,-9.623 -1.12,-14.273c-0.702,3.217 -0.994,4.503 -1.737,7.683c0.099,-1.236 0.176,-2.486 0.171,-3.743c-0.022,-4.771 -0.713,-9.418 -1.314,-13.969c-0.465,2.463 -0.677,3.567 -1.163,6.015c0.03,-1.026 0.042,-2.059 -0.001,-3.085c-0.195,-4.682 -1.001,-9.147 -1.743,-13.535c-0.245,1.72 -0.493,3.437 -0.746,5.151c-0.004,-0.072 -0.008,-0.144 -0.012,-0.215c-0.282,-4.572 -1.156,-8.874 -2.004,-13.078c-0.343,2.915 -0.696,5.809 -1.051,8.716c0.04,-1.517 0.056,-3.051 -0.045,-4.56c-0.302,-4.495 -1.268,-8.609 -2.176,-12.668c-0.329,2.704 -0.669,5.398 -1.009,8.095c0.001,-1.174 -0.02,-2.353 -0.119,-3.51c-0.379,-4.418 -1.383,-8.483 -2.327,-12.453c-0.162,1.435 -0.326,2.87 -0.493,4.303c-0.544,-3.793 -1.367,-7.42 -2.29,-10.86c-0.208,1.79 -0.398,3.589 -0.593,5.386c-0.037,-0.54 -0.086,-1.102 -0.153,-1.63c-0.511,-4.061 -1.651,-7.593 -2.712,-11.087c-0.119,1.485 -0.244,2.968 -0.38,4.447c-0.034,-0.22 -0.07,-0.439 -0.11,-0.655c-0.73,-3.918 -2.007,-7.306 -3.175,-10.666c-0.039,1.371 -0.082,2.742 -0.131,4.112c-0.829,-3.785 -2.069,-7.12 -3.243,-10.443c-0.017,1.475 -0.038,2.949 -0.065,4.423c-0.885,-3.702 -2.096,-7.023 -3.265,-10.332c0.012,2.917 0.012,3.1 -0.004,6.003c-0.099,-0.515 -0.212,-1.046 -0.335,-1.537c-0.996,-3.965 -2.437,-7.367 -3.771,-10.821c0.172,3.073 0.178,3.22 0.317,6.288c-0.107,-0.56 -0.228,-1.145 -0.361,-1.681c-0.992,-4.016 -2.41,-7.5 -3.73,-11.037c0.177,2.425 0.328,4.845 0.463,7.282c-0.135,-0.767 -0.281,-1.527 -0.455,-2.259c-1.043,-4.389 -2.596,-7.633 -4.214,-11.096c0.155,1.87 0.293,3.745 0.418,5.624c-0.046,-0.15 -0.093,-0.299 -0.141,-0.446c-1.345,-4.073 -3.142,-7.396 -4.842,-10.775c0.161,1.275 0.316,2.554 0.464,3.837c-1.3,-3.309 -2.761,-6.314 -4.224,-9.296c0.31,2.376 0.59,4.778 0.856,7.178c-0.201,-0.811 -0.416,-1.608 -0.661,-2.363c-1.248,-3.837 -2.873,-7.043 -4.396,-10.373c0.301,2.515 0.354,3.023 0.616,5.565c-0.227,-0.739 -0.463,-1.465 -0.724,-2.153c-1.349,-3.566 -2.991,-6.566 -4.494,-9.827c0.37,2.558 0.731,5.123 1.101,7.682c-0.198,-0.742 -0.405,-1.475 -0.641,-2.168c-1.032,-3.043 -2.308,-5.668 -3.45,-8.52c0.15,1.424 0.301,2.846 0.456,4.268c-0.958,-3.02 -2.083,-5.78 -3.078,-8.743c0.248,3.376 0.42,6.807 0.857,10.107c0.114,0.855 0.391,1.547 0.703,2.116c-0.085,-0.098 -0.172,-0.184 -0.262,-0.257c-0.391,-0.32 -0.814,-0.355 -1.229,-0.378c-1.974,-0.112 -3.948,0.176 -5.917,0.467c1.726,1.282 3.45,2.596 5.218,3.602c-0.761,0.049 -1.522,0.112 -2.283,0.197c1.869,1.398 3.717,2.973 5.646,3.976c0.335,0.174 0.713,0.33 1.053,0.457c-1.474,-0.02 -2.944,-0.016 -4.417,0.055c2.266,1.746 4.493,3.762 6.826,5.096c0.143,0.082 0.286,0.158 0.43,0.231c-1.566,-0.357 -1.923,-0.445 -3.486,-0.758c2.119,2.204 4.219,4.516 6.42,6.342c-0.776,-0.209 -1.552,-0.425 -2.328,-0.639c2.131,2.344 4.26,4.725 6.486,6.641c-0.998,-0.28 -1.994,-0.584 -2.99,-0.899c1.937,2.184 3.889,4.32 5.902,6.179c-0.729,-0.259 -1.457,-0.534 -2.184,-0.819c2.267,2.763 4.55,5.568 6.997,7.567c-0.9,-0.259 -1.797,-0.554 -2.693,-0.875c2.289,2.704 4.613,5.484 7.126,7.158c0.079,0.053 0.159,0.104 0.239,0.153c-1.048,-0.165 -2.094,-0.402 -3.137,-0.692c1.823,2.007 3.686,3.808 5.62,5.278c-0.616,-0.08 -1.236,-0.077 -1.851,-0.211c1.659,1.795 3.341,3.504 5.057,5.043c-0.714,-0.178 -1.43,-0.332 -2.147,-0.452c1.907,2.027 3.803,4.107 5.768,5.873c-0.918,-0.356 -1.839,-0.678 -2.762,-0.955c1.98,2.178 3.859,4.563 5.786,6.923c-0.918,-0.566 -1.84,-1.111 -2.765,-1.622c1.928,3.182 3.786,6.595 5.865,9.341c0.138,0.182 0.278,0.358 0.419,0.53c-1.015,-0.721 -2.209,-1.553 -3.228,-2.233c1.582,2.927 3.159,5.875 4.819,8.605c-0.746,-0.544 -1.492,-1.087 -2.24,-1.62c1.826,3.56 3.61,7.286 5.66,10.282c-0.815,-0.598 -1.628,-1.201 -2.442,-1.803c1.803,3.67 3.573,7.509 5.648,10.506c0.446,0.643 0.913,1.216 1.386,1.762c-1.293,-0.862 -2.565,-1.748 -3.851,-2.661c1.747,3.575 3.488,7.238 5.495,10.171c-1.532,-1.07 -1.441,-1.01 -2.966,-2.142c1.726,3.763 3.43,7.51 5.439,10.609c1.61,2.486 3.437,4.258 5.241,6.007c0.124,0.121 0.249,0.241 0.374,0.36c0.033,0.342 0.08,0.684 0.133,1.014c-0.116,-0.359 -0.254,-0.683 -0.408,-0.969c-0.379,-0.698 -0.846,-1.131 -1.299,-1.565c-2.322,-2.224 -4.727,-3.983 -7.096,-5.963c1.544,3.833 3.055,7.933 4.886,11.185c0.221,0.393 0.464,0.782 0.699,1.137c-1.085,-0.998 -2.168,-2.003 -3.253,-3.001c1.417,4.091 2.799,8.313 4.611,11.685c0.752,1.398 1.591,2.564 2.437,3.688c-1.762,-1.604 -3.519,-3.229 -5.269,-4.891c1.441,4.264 2.882,8.605 4.77,12.053c0.068,0.124 0.137,0.245 0.206,0.365c-1.254,-1.137 -1.358,-1.234 -2.6,-2.395c1.529,4.428 3.027,9.047 4.949,12.771c0.118,0.229 0.24,0.453 0.363,0.671c-1.419,-1.352 -1.629,-1.555 -3.037,-2.935c1.406,4.331 2.783,8.774 4.624,12.354c0.104,0.202 0.21,0.398 0.318,0.59c-1.456,-1.38 -1.828,-1.738 -3.273,-3.147c1.36,4.249 2.709,8.576 4.512,12.063c0.038,0.074 0.077,0.147 0.115,0.22c-1.254,-1.182 -1.786,-1.688 -3.035,-2.89c1.389,4.283 2.773,8.627 4.604,12.138c0.226,0.434 0.477,0.866 0.719,1.26c-1.174,-1.171 -2.346,-2.348 -3.517,-3.532c1.387,4.44 2.771,8.937 4.6,12.638c0.284,0.576 0.613,1.161 0.92,1.68c-1.166,-1.179 -2.333,-2.356 -3.5,-3.532c1.395,4.31 2.776,8.683 4.554,12.345c0.258,0.532 0.554,1.075 0.832,1.562c-1.629,-1.592 -2.4,-2.332 -4.037,-3.897c1.59,4.443 3.147,8.969 5.056,12.837c1.713,3.472 3.692,6.289 5.615,9.203c-0,-0 0.086,-0.547 0.129,-0.82Zm-11.847,-72.453c0.02,0.387 0.057,0.777 0.101,1.155c-0.063,-0.221 -0.134,-0.429 -0.212,-0.627c0.037,-0.175 0.074,-0.352 0.111,-0.528Zm-12.012,-50.288c0.05,0.299 0.111,0.596 0.176,0.882c-0.065,-0.161 -0.136,-0.314 -0.21,-0.457c0.011,-0.142 0.023,-0.283 0.034,-0.425Zm-3.14,-8.673c0.033,0.149 0.068,0.297 0.104,0.443c-0.038,-0.087 -0.077,-0.173 -0.117,-0.255c0.004,-0.063 0.009,-0.126 0.013,-0.188Zm-36.935,-71.421c0.017,0.032 0.034,0.063 0.051,0.094c-0.015,-0.018 -0.029,-0.035 -0.044,-0.053c-0.002,-0.013 -0.004,-0.027 -0.007,-0.041Zm-8.644,-12.838c0.067,0.119 0.135,0.235 0.204,0.348c-0.055,-0.058 -0.11,-0.114 -0.166,-0.166c-0.013,-0.061 -0.025,-0.121 -0.038,-0.182Zm4.019,6.618c0.041,0.008 0.081,0.017 0.121,0.026c0.046,0.092 0.093,0.183 0.141,0.273c-0.085,-0.107 -0.173,-0.207 -0.262,-0.299Zm16.321,23.827c0,-0 0,-0.001 0,-0.001c0.001,0.001 0.001,0.002 0.001,0.003c0,-0.001 -0,-0.001 -0.001,-0.002Z" style="fill:url(#_Linear1);"/>
        <path d="M81.884,384.459c1.951,-4.018 4.021,-8.248 5.542,-12.829c1.723,-5.188 2.898,-11.011 4.074,-16.486c-1.102,1.856 -2.198,3.723 -3.291,5.599c0.053,-0.143 0.105,-0.287 0.156,-0.432c1.736,-4.913 2.962,-10.479 4.182,-15.707c-1.038,1.654 -2.533,4.064 -3.426,5.515c0.283,-0.685 0.577,-1.434 0.832,-2.154c1.812,-5.13 3.093,-10.941 4.367,-16.4c-1.404,2.237 -3.385,5.435 -4.618,7.455c0.542,-1.288 1.073,-2.603 1.536,-3.979c1.739,-5.177 2.933,-10.998 4.126,-16.469c-0.983,1.639 -1.962,3.288 -2.938,4.943c0.011,-0.032 0.022,-0.065 0.033,-0.098c1.767,-5.259 2.98,-11.172 4.192,-16.73c-0.688,1.147 -1.374,2.3 -2.058,3.455c1.572,-5.266 2.812,-10.859 4.001,-16.31c-0.735,1.227 -1.468,2.46 -2.2,3.695c1.865,-5.948 3.248,-12.372 4.602,-18.581c-2.238,3.733 -4.468,7.489 -6.665,11.315c0.959,-2.18 1.915,-4.415 2.711,-6.787c2.062,-6.136 3.477,-13.036 4.892,-19.522c-1.606,2.679 -3.205,5.376 -4.795,8.092c0.575,-1.384 1.138,-2.796 1.633,-4.269c2.061,-6.135 3.483,-13.04 4.878,-19.531c-1.8,3.021 -3.593,6.059 -5.376,9.118c0.637,-1.585 1.261,-3.204 1.795,-4.893c1.969,-6.22 3.256,-13.175 4.532,-19.706c-1.375,2.443 -2.745,4.898 -4.11,7.362c0.48,-1.372 0.946,-2.768 1.346,-4.205c1.774,-6.373 2.829,-13.374 3.895,-19.958c-1.113,2.188 -2.22,4.386 -3.325,6.589c0.028,-0.103 0.055,-0.206 0.082,-0.309c1.671,-6.443 2.609,-13.456 3.572,-20.061c-1.845,3.82 -3.681,7.658 -5.494,11.531c0.754,-2.122 1.497,-4.292 2.092,-6.54c1.703,-6.429 2.682,-13.439 3.688,-20.045c-1.809,3.673 -3.607,7.367 -5.384,11.093c0.58,-1.695 1.145,-3.421 1.613,-5.2c1.695,-6.436 2.67,-13.442 3.679,-20.05c-1.008,2.048 -2.01,4.106 -3.008,6.17c1.33,-5.957 2.303,-12.12 3.232,-18.158c-1.236,2.507 -2.905,5.945 -3.995,8.214c0.252,-0.835 0.509,-1.735 0.726,-2.594c1.636,-6.466 2.557,-13.46 3.527,-20.073c-1.091,2.268 -2.526,5.298 -3.495,7.364c0.103,-0.4 0.202,-0.802 0.296,-1.207c1.506,-6.523 2.288,-13.502 3.133,-20.118c-0.944,2.088 -2.159,4.818 -3.002,6.73c1.398,-6.362 2.287,-13.12 3.086,-19.56c-1.043,2.342 -2.116,4.64 -3.157,6.984c1.344,-6.289 2.208,-12.745 2.77,-19.087c-1.238,3.13 -2.505,6.216 -3.815,9.253c0.22,-0.888 0.435,-1.83 0.609,-2.737c1.264,-6.615 1.536,-13.662 1.736,-20.137c-0.997,3.239 -2.025,6.446 -3.102,9.618c0.198,-0.951 0.388,-1.958 0.535,-2.921c1.027,-6.733 1.105,-13.715 1.168,-20.219c-0.962,3.626 -1.958,7.23 -3.012,10.798c0.231,-1.261 0.44,-2.535 0.595,-3.805c0.832,-6.809 0.787,-13.73 0.771,-20.279c-0.665,2.896 -1.236,5.339 -1.98,8.348c0.024,-0.259 0.046,-0.517 0.065,-0.776c0.526,-6.864 0.281,-13.675 0.114,-20.246c-0.359,2.022 -0.721,4.045 -1.097,6.064c0.181,-6.047 0.06,-12.008 -0.071,-17.905c-0.626,3.925 -1.26,7.848 -1.946,11.764c0.14,-1.405 0.261,-2.813 0.339,-4.207c0.384,-6.852 0.198,-13.598 0.134,-20.262c-0.487,3.337 -0.855,5.901 -1.403,9.461c0.079,-1.368 0.145,-2.736 0.179,-4.091c0.168,-6.695 -0.074,-13.251 -0.143,-19.836c-0.508,4.5 -1.007,8.999 -1.548,13.5c0.098,-1.378 0.185,-2.754 0.242,-4.121c0.227,-5.538 0.18,-10.996 0.263,-16.478c-0.282,2.371 -0.564,4.741 -0.853,7.112c0.256,-5.159 0.353,-10.273 0.554,-15.415c-0.683,5.327 -1.418,10.655 -2.098,15.981c-0.175,1.365 -0.256,2.702 -0.264,4.028c-0.014,-0.212 -0.034,-0.424 -0.061,-0.627c-0.088,-0.664 -0.271,-1.115 -0.525,-1.542c-0.92,-1.547 -2.105,-2.701 -3.204,-3.787c0.358,3.455 0.732,6.999 1.377,10.194c-0.468,-0.499 -0.941,-0.984 -1.422,-1.447c0.454,3.827 0.884,7.939 1.815,11.284c0.147,0.528 0.331,1.049 0.515,1.521c-0.992,-1.029 -2.003,-2.015 -3.032,-2.938c0.653,4.638 1.297,9.638 2.568,13.6c0.071,0.223 0.147,0.44 0.226,0.652c-0.665,-0.967 -1.599,-2.305 -2.338,-3.322c0.503,5.005 1.059,10.151 2.106,14.641c-0.56,-0.731 -1.12,-1.462 -1.684,-2.182c0.591,4.922 1.257,9.928 2.347,14.347c-0.765,-0.927 -1.53,-1.854 -2.299,-2.769c0.592,4.411 1.278,8.801 2.199,12.878c-0.555,-0.761 -1.11,-1.523 -1.667,-2.282c0.609,5.382 1.233,11.037 2.478,15.787c-0.729,-0.938 -1.458,-1.879 -2.188,-2.815c0.648,5.47 1.269,11.376 2.634,16.114c0.044,0.152 0.089,0.302 0.136,0.451c-0.912,-1.122 -1.824,-2.245 -2.738,-3.363c0.557,4.762 1.175,9.563 2.076,13.999c-0.61,-0.878 -1.22,-1.758 -1.832,-2.634c0.38,5.262 0.861,10.285 1.877,14.976c-0.768,-1.027 -1.537,-2.05 -2.31,-3.066c0.745,5.689 1.501,11.595 2.826,16.688c-0.96,-1.286 -1.923,-2.566 -2.891,-3.835c0.753,5.657 1.523,11.5 2.83,16.586c-0.914,-1.375 -1.83,-2.745 -2.751,-4.105c0.643,5.999 1.242,12.411 2.598,17.719c0.087,0.342 0.18,0.676 0.278,1.004c-1.042,-1.65 -2.089,-3.292 -3.141,-4.921c0.507,5.211 1.08,10.444 1.922,15.361c-0.724,-1.137 -1.45,-2.27 -2.179,-3.396c0.591,6.028 1.141,12.425 2.415,17.816c-0.788,-1.236 -1.579,-2.468 -2.372,-3.692c0.596,6.058 1.138,12.533 2.444,17.925c0.276,1.141 0.616,2.212 0.97,3.247c-1.25,-1.905 -2.508,-3.795 -3.772,-5.667c0.63,5.888 1.247,12.037 2.48,17.352c-0.939,-1.529 -1.881,-3.05 -2.828,-4.561c0.543,6.084 1.022,12.591 2.273,18.032c0.997,4.339 2.616,8.047 4.146,11.599c0.103,0.24 0.207,0.478 0.311,0.716c-0.099,0.482 -0.183,0.975 -0.254,1.462c0.005,-0.546 -0.028,-1.073 -0.102,-1.565c-0.176,-1.169 -0.574,-2.052 -0.961,-2.927c-1.984,-4.477 -4.282,-8.451 -6.48,-12.532c0.331,6.214 0.581,12.852 1.625,18.503c0.122,0.661 0.274,1.339 0.427,1.964c-0.978,-2.017 -1.962,-4.022 -2.954,-6.014c0.215,6.27 0.342,12.965 1.282,18.707c0.36,2.199 0.907,4.218 1.467,6.181c-1.469,-3.102 -2.967,-6.156 -4.476,-9.187c0.21,6.271 0.34,12.966 1.28,18.705c0.032,0.195 0.066,0.388 0.101,0.58c-0.706,-1.444 -1.414,-2.885 -2.126,-4.316c0.207,6.201 0.336,12.822 1.266,18.498c0.053,0.329 0.112,0.652 0.175,0.971c0,0 -2.351,-4.781 -2.351,-4.781c0.189,5.664 0.307,11.711 1.156,16.895c0.046,0.28 0.096,0.555 0.149,0.828c-0.81,-1.668 -1.624,-3.327 -2.444,-4.975c0.18,5.374 0.292,11.112 1.097,16.03c0.017,0.101 0.034,0.201 0.051,0.301c-0.729,-1.5 -1.463,-2.993 -2.201,-4.477c0.177,5.29 0.287,10.938 1.08,15.779c0.094,0.577 0.213,1.165 0.334,1.711c-0.801,-1.783 -1.608,-3.556 -2.421,-5.317c0.092,5.354 0.113,11.065 0.825,16.002c0.108,0.747 0.257,1.522 0.405,2.225c-0.788,-1.756 -1.582,-3.502 -2.383,-5.236c0.088,5.128 0.108,10.598 0.79,15.326c0.099,0.681 0.232,1.385 0.366,2.026c-0.757,-1.544 -1.995,-4.031 -2.871,-5.762c0.196,5.277 0.326,10.912 1.136,15.733c0.762,4.527 2.195,8.499 3.566,12.228c-0,-0 0.252,-0.514 0.377,-0.772Zm9.277,-87.338c-0.11,0.485 -0.202,0.982 -0.283,1.474c0.008,-0.295 0.005,-0.585 -0.01,-0.869c0.098,-0.201 0.195,-0.403 0.293,-0.605Zm6.083,-74.679c-0.069,0.459 -0.123,0.925 -0.167,1.383c-0.012,-0.275 -0.034,-0.543 -0.066,-0.804c0.078,-0.193 0.155,-0.386 0.233,-0.579Zm0.107,-14.534c-0.03,0.236 -0.056,0.471 -0.08,0.706c-0.006,-0.149 -0.014,-0.296 -0.025,-0.442c0.035,-0.087 0.07,-0.175 0.105,-0.264Zm-2.055,-141.389c0.001,0.06 0.002,0.121 0.003,0.181c-0.005,-0.037 -0.01,-0.075 -0.015,-0.112c0.004,-0.023 0.008,-0.046 0.012,-0.069Zm-1.773,-26.89c0.004,0.246 0.011,0.49 0.02,0.734c-0.017,-0.135 -0.036,-0.268 -0.058,-0.399c0.013,-0.112 0.025,-0.223 0.038,-0.335Zm0.527,13.795c0.028,0.041 0.057,0.082 0.085,0.123c0,0.181 0.001,0.361 0.003,0.541c-0.024,-0.226 -0.053,-0.448 -0.088,-0.664Zm3.482,50.166c-0,-0.001 0,-0.001 0,-0.002c0,0.002 0,0.004 0,0.005c-0,-0.001 -0,-0.002 -0,-0.003Z" style="fill:url(#_Linear2);"/>
        <path d="M84.437,312.504c0.94,-3.198 1.934,-6.363 2.659,-9.746c0.812,-3.79 1.305,-7.771 1.856,-11.699c-0.622,1.503 -1.239,3.013 -1.849,4.532c0.027,-0.107 0.054,-0.214 0.08,-0.321c0.881,-3.622 1.444,-7.459 2.045,-11.25c-0.671,1.505 -1.338,3.013 -2,4.53c0.154,-0.518 0.314,-1.084 0.449,-1.618c0.953,-3.771 1.551,-7.787 2.167,-11.764c-0.924,2.041 -1.849,4.079 -2.762,6.135c0.301,-0.979 0.594,-1.968 0.841,-2.995c0.906,-3.758 1.417,-7.766 1.921,-11.743c-0.589,1.348 -1.18,2.695 -1.769,4.043c0.006,-0.024 0.011,-0.048 0.017,-0.073c0.9,-3.81 1.359,-7.885 1.789,-11.932c-0.41,0.945 -0.82,1.89 -1.232,2.832c0.71,-3.762 1.118,-7.68 1.421,-11.607c-0.426,1.015 -0.854,2.026 -1.285,3.034c0.777,-4.274 1.067,-8.763 1.218,-13.231c-1.199,3.061 -2.547,6.276 -3.79,9.277c0.486,-1.662 0.956,-3.356 1.269,-5.152c0.779,-4.474 0.838,-9.259 0.707,-13.901c-0.854,2.405 -1.603,4.325 -2.523,6.654c0.242,-1.046 0.465,-2.113 0.611,-3.217c0.603,-4.541 0.272,-9.35 -0.035,-13.918c-0.83,2.547 -1.69,5.036 -2.575,7.522c0.21,-1.201 0.394,-2.423 0.479,-3.676c0.318,-4.665 -0.224,-9.38 -0.711,-13.942c-0.808,2.868 -0.901,3.18 -1.759,6.015c0.097,-1.026 0.171,-2.062 0.175,-3.103c0.021,-4.735 -0.771,-9.373 -1.46,-13.893c-0.384,1.76 -0.778,3.514 -1.182,5.26c-0.001,-0.074 -0.002,-0.148 -0.004,-0.222c-0.108,-4.731 -0.974,-9.317 -1.728,-13.811c-0.578,3.068 -1.163,6.02 -1.776,9.067c0.142,-1.589 0.256,-3.196 0.23,-4.809c-0.075,-4.684 -0.864,-9.25 -1.567,-13.724c-0.544,2.937 -1.083,5.739 -1.652,8.662c0.086,-1.25 0.149,-2.51 0.125,-3.771c-0.087,-4.618 -0.848,-9.12 -1.572,-13.518c-0.263,1.576 -0.528,3.151 -0.797,4.723c-0.293,-4.075 -0.919,-8.057 -1.648,-11.944c-0.46,3.244 -0.433,3.065 -0.883,6.14c-0.006,-0.584 -0.023,-1.199 -0.06,-1.78c-0.283,-4.456 -1.23,-8.705 -2.272,-12.745c-0.219,2.646 -0.187,2.614 -0.508,5.241c-0.027,-0.262 -0.057,-0.524 -0.092,-0.783c-0.621,-4.571 -2.056,-8.733 -3.117,-12.994c-0.024,1.815 -0.032,3.636 -0.139,5.442c-0.814,-4.783 -1.844,-9.394 -2.886,-14.03c-0.027,1.932 -0.061,3.865 -0.118,5.796c-0.666,-4.712 -1.675,-9.252 -2.692,-13.746c-0.022,2.517 -0.041,5.051 -0.092,7.568c-0.074,-0.673 -0.163,-1.377 -0.264,-2.038c-0.75,-4.904 -2.006,-9.511 -3.263,-14.047c0.077,2.521 0.17,5.04 0.247,7.561c-0.094,-0.703 -0.203,-1.443 -0.326,-2.132c-0.863,-4.852 -2.242,-9.346 -3.611,-13.785c0.114,2.787 0.272,5.542 0.433,8.321c-0.145,-0.919 -0.302,-1.833 -0.49,-2.726c-1.005,-4.772 -2.508,-9.136 -3.953,-13.506c0.071,1.738 0.246,4.598 0.372,6.325c-0.044,-0.178 -0.088,-0.354 -0.134,-0.529c-1.209,-4.598 -2.867,-8.741 -4.404,-12.991c0.08,1.497 0.192,2.989 0.326,4.473c-1.186,-3.828 -2.516,-7.454 -3.48,-11.496c0.065,2.817 0.276,5.606 0.568,8.374c-0.177,-0.967 -0.356,-1.935 -0.552,-2.891c-0.912,-4.454 -1.96,-8.819 -2.789,-13.329c-0.076,2.043 -0.046,4.465 0.054,6.503c-0.149,-0.899 -0.297,-1.8 -0.463,-2.689c-0.786,-4.227 -1.747,-8.334 -2.685,-12.457c-0.105,2.967 -0.02,5.894 0.205,8.837c-0.132,-0.876 -0.265,-1.753 -0.423,-2.616c-0.64,-3.481 -1.516,-6.784 -2.434,-10.052c-0.015,1.526 0.018,3.054 0.09,4.575c-0.686,-3.24 -1.617,-6.274 -2.632,-9.216c0.036,3.41 0.219,6.806 0.704,10.109c0.128,0.874 0.384,1.667 0.677,2.393c-0.07,-0.122 -0.143,-0.237 -0.222,-0.342c-0.296,-0.398 -0.642,-0.573 -1,-0.71c-1.489,-0.572 -3.021,-0.722 -4.537,-0.814c1.528,1.516 2.983,3.244 4.462,4.906c-0.536,-0.162 -1.074,-0.303 -1.614,-0.417c1.527,1.898 2.921,4.105 4.433,6.037c0.23,0.295 0.49,0.594 0.732,0.86c-0.95,-0.512 -1.882,-0.963 -2.852,-1.333c1.707,2.549 3.229,5.463 4.929,8.026c0.092,0.139 0.186,0.276 0.281,0.41c-0.517,-0.502 -1.623,-1.541 -2.151,-2.003c1.528,3.133 2.946,6.441 4.537,9.474c-0.466,-0.485 -0.93,-0.979 -1.395,-1.468c1.469,3.349 2.909,6.773 4.578,9.817c-0.635,-0.605 -1.258,-1.249 -1.875,-1.91c1.351,3.127 2.744,6.219 4.322,8.991c-0.512,-0.479 -1.015,-0.988 -1.511,-1.518c1.631,3.76 3.356,7.801 5.606,10.438c-0.739,-0.262 -1.456,-0.736 -2.145,-1.286c1.692,3.428 3.597,6.689 5.665,9.394c0.061,0.08 0.122,0.158 0.184,0.235c-0.808,-0.374 -1.62,-0.724 -2.436,-1.041c1.459,2.692 2.862,5.484 4.373,8.083c-0.557,-0.359 -1.115,-0.711 -1.676,-1.05c1.294,3.072 2.539,6.228 3.977,9.095c-0.658,-0.432 -1.317,-0.862 -1.977,-1.281c1.238,3.295 3.034,6.15 4.81,8.495c-0.913,-0.502 -1.827,-0.999 -2.743,-1.483c1.682,3.141 3.396,6.254 5.346,8.869c-0.952,-0.611 -1.905,-1.221 -2.859,-1.824c1.789,3.567 3.559,7.229 5.692,10.161c0.141,0.193 0.284,0.379 0.428,0.561c-1.139,-0.781 -2.279,-1.564 -3.419,-2.342c1.516,3.166 3.057,6.304 4.726,9.215c-0.791,-0.548 -1.582,-1.098 -2.374,-1.646c1.743,3.745 3.429,7.647 5.502,10.84c-0.851,-0.592 -1.7,-1.187 -2.55,-1.781c1.619,3.652 3.16,7.713 5.098,10.862c0.4,0.65 0.837,1.221 1.284,1.759c-1.852,-1.179 -1.684,-1.134 -3.662,-2.471c1.547,3.625 2.899,7.363 4.879,10.31c-0.992,-0.639 -1.98,-1.3 -2.959,-1.996c1.504,3.91 3.104,7.779 5.217,10.707c1.848,2.56 4.038,4.249 6.156,5.94c0.146,0.116 0.292,0.232 0.438,0.347c0.02,0.337 0.056,0.675 0.1,1.004c-0.12,-0.354 -0.27,-0.673 -0.441,-0.951c-0.433,-0.699 -0.986,-1.111 -1.513,-1.524c-2.664,-2.085 -5.42,-3.757 -8.098,-5.779c1.492,3.998 3.041,8.001 5.108,11.127c0.25,0.379 0.528,0.752 0.795,1.092c-1.397,-1.018 -2.406,-1.757 -3.798,-2.809c1.499,4.003 3.016,8.015 5.008,11.296c0.777,1.28 1.651,2.353 2.524,3.407c-1.919,-1.495 -3.819,-2.887 -5.752,-4.323c1.473,3.887 2.852,7.953 4.701,11.321c0.062,0.113 0.125,0.223 0.189,0.333c-0.865,-0.689 -1.732,-1.368 -2.601,-2.039c1.315,3.813 2.488,7.835 4.136,11.239c0.092,0.19 0.188,0.376 0.285,0.558c-0.885,-0.779 -1.776,-1.538 -2.67,-2.28c1.043,3.478 1.936,7.145 3.282,10.299c0.07,0.163 0.142,0.322 0.215,0.478c-0.847,-0.821 -1.703,-1.617 -2.564,-2.392c0.856,3.303 1.566,6.771 2.717,9.799c0.023,0.058 0.046,0.117 0.069,0.175c-0.708,-0.743 -1.421,-1.465 -2.141,-2.168c0.728,3.256 1.313,6.657 2.34,9.667c0.114,0.334 0.247,0.672 0.377,0.985c-0.689,-0.868 -1.49,-1.832 -2.197,-2.648c0.571,3.329 1.008,6.777 1.896,9.9c0.124,0.436 0.277,0.886 0.426,1.294c-0.623,-0.853 -1.356,-1.816 -1.995,-2.623c0.468,3.195 0.826,6.488 1.62,9.494c0.105,0.397 0.234,0.806 0.362,1.181c-0.69,-0.912 -1.521,-1.965 -2.229,-2.827c0.511,3.258 0.92,6.618 1.782,9.655c0.722,2.544 1.812,4.694 2.895,6.755c0,-0 0.118,-0.398 0.177,-0.598Zm0.078,-58.259c-0.026,0.337 -0.038,0.681 -0.04,1.021c-0.032,-0.188 -0.073,-0.372 -0.122,-0.546c0.054,-0.158 0.108,-0.317 0.162,-0.475Zm-9.624,-49.043c0.043,0.314 0.099,0.627 0.162,0.93c-0.071,-0.171 -0.147,-0.334 -0.23,-0.487c0.023,-0.148 0.046,-0.295 0.068,-0.443Zm-2.95,-9.22c0.025,0.159 0.052,0.316 0.081,0.471c-0.034,-0.092 -0.07,-0.182 -0.108,-0.27c0.009,-0.067 0.018,-0.134 0.027,-0.201Zm-32.424,-87.408c0.015,0.041 0.03,0.082 0.045,0.123c-0.012,-0.024 -0.024,-0.049 -0.037,-0.074c-0.003,-0.016 -0.005,-0.032 -0.008,-0.049Zm-6.718,-17.624c0.05,0.156 0.101,0.312 0.153,0.466c-0.038,-0.084 -0.077,-0.167 -0.118,-0.248c-0.011,-0.073 -0.023,-0.145 -0.035,-0.218Zm3.049,8.951c0.026,0.025 0.053,0.049 0.08,0.074c0.037,0.12 0.075,0.241 0.113,0.36c-0.062,-0.148 -0.126,-0.293 -0.193,-0.434Zm14.382,31.46c0,-0 0,-0.001 0,-0.001c0.001,0.001 0.001,0.002 0.001,0.003c0,-0 -0,-0.001 -0.001,-0.002Z" style="fill:url(#_Linear3);"/>
        <path d="M84.993,405.864c-0.918,-3.613 -1.854,-7.252 -2.445,-11.148c-0.657,-4.336 -0.897,-8.874 -1.14,-13.362c0.523,1.72 1.042,3.445 1.558,5.174c-0.02,-0.121 -0.04,-0.243 -0.059,-0.366c-0.65,-4.161 -0.893,-8.525 -1.146,-12.839c0.545,1.717 1.085,3.44 1.621,5.168c-0.111,-0.595 -0.223,-1.237 -0.312,-1.847c-0.639,-4.357 -0.84,-8.915 -1.056,-13.417c0,0 2.14,6.994 2.14,6.994c-0.207,-1.121 -0.402,-2.254 -0.547,-3.415c-0.544,-4.372 -0.639,-8.91 -0.751,-13.391c0.439,1.532 0.875,3.068 1.309,4.606c-0.003,-0.028 -0.006,-0.055 -0.009,-0.083c-0.518,-4.452 -0.569,-9.06 -0.642,-13.609c0.302,1.074 0.602,2.15 0.901,3.227c-0.351,-4.376 -0.421,-8.822 -0.453,-13.246c0.317,1.151 0.632,2.304 0.946,3.458c-0.417,-4.988 -0.423,-10.071 -0.412,-15.113c0.945,3.508 1.884,7.025 2.791,10.574c-0.324,-1.927 -0.634,-3.873 -0.818,-5.878c-0.48,-5.234 -0.384,-10.603 -0.323,-15.896c0.664,2.521 1.32,5.051 1.969,7.588c-0.173,-1.21 -0.333,-2.432 -0.437,-3.675c-0.438,-5.247 -0.291,-10.609 -0.185,-15.897c0.731,2.842 1.455,5.693 2.166,8.555c-0.175,-1.38 -0.334,-2.772 -0.423,-4.187c-0.329,-5.274 -0.065,-10.614 0.153,-15.881l1.582,6.831c-0.1,-1.167 -0.185,-2.342 -0.219,-3.526c-0.151,-5.302 0.299,-10.588 0.698,-15.807c0.392,1.993 0.779,3.989 1.163,5.988c-0.002,-0.084 -0.003,-0.168 -0.004,-0.253c-0.051,-5.308 0.502,-10.554 1,-15.736c0.61,3.441 1.211,6.889 1.79,10.351c-0.153,-1.811 -0.288,-3.636 -0.307,-5.476c-0.055,-5.309 0.497,-10.557 0.989,-15.742c0.602,3.323 1.194,6.654 1.766,9.997c-0.101,-1.435 -0.186,-2.879 -0.194,-4.33c-0.029,-5.308 0.551,-10.543 1.068,-15.716c0.33,1.854 0.654,3.711 0.976,5.57c0.16,-4.779 0.614,-9.494 1.099,-14.175c-0,0 1.274,7.411 1.274,7.411c-0.021,-0.693 -0.034,-1.432 -0.027,-2.127c0.059,-5.304 0.727,-10.493 1.327,-15.627c0.129,0.792 0.927,5.816 1.05,6.613c0.004,-0.324 0.011,-0.648 0.022,-0.971c0.185,-5.29 0.97,-10.407 1.668,-15.489c0.259,1.997 0.507,4 0.752,6.004c0.254,-5.112 0.954,-10.079 1.613,-15.024c0.258,2.071 0.508,4.145 0.753,6.223c0.272,-4.864 0.895,-9.61 1.503,-14.337c0.332,2.687 0.658,5.393 0.972,8.089c0.014,-0.694 0.038,-1.439 0.078,-2.128c0.286,-4.863 1.061,-9.528 1.778,-14.183c0.268,2.637 0.532,5.291 0.786,7.933c0.009,-0.704 0.027,-1.469 0.064,-2.17c0.246,-4.627 0.971,-9.064 1.651,-13.488c0.313,2.832 0.63,5.722 0.93,8.56c-0.002,-0.903 0.007,-1.808 0.05,-2.707c0.215,-4.448 0.922,-8.702 1.597,-12.932c0.259,2.122 0.518,4.244 0.776,6.367c0.01,-0.17 0.021,-0.341 0.034,-0.511c0.331,-4.339 1.201,-8.397 2.043,-12.413c0.155,1.465 0.309,2.929 0.463,4.394c0.503,-3.845 1.285,-7.53 1.935,-11.277c0.264,2.767 0.534,5.53 0.803,8.295c0.008,-0.949 0.029,-1.899 0.09,-2.841c0.309,-4.806 1.17,-9.434 2.111,-13.862c0.187,3.346 0.17,3.08 0.404,6.666c0.088,-0.97 0.194,-1.935 0.339,-2.878c0.847,-5.473 2.481,-10.381 4.208,-14.872c-0.385,3.289 -0.68,6.55 -0.908,9.896c0.166,-1.041 0.356,-2.068 0.592,-3.055c1.179,-4.936 3.032,-9.187 4.907,-13.091c-0.393,1.798 -0.76,3.621 -1.095,5.466c1.683,-4.851 3.887,-8.953 6.128,-12.734c-1.327,4.037 -2.442,8.325 -3.545,12.619c-0.296,1.155 -0.713,2.174 -1.15,3.124c0.108,-0.181 0.218,-0.351 0.333,-0.512c0.437,-0.611 0.926,-0.992 1.43,-1.323c1.833,-1.202 3.748,-1.935 5.685,-1.921c-1.971,1.993 -3.841,4.349 -5.721,6.665c0.693,-0.353 1.394,-0.654 2.102,-0.869c-1.965,2.582 -3.764,5.613 -5.682,8.325c-0.303,0.428 -0.649,0.876 -0.963,1.27c1.274,-0.968 2.582,-1.874 3.906,-2.531c-2.024,3.27 -3.803,7.082 -5.792,10.426c-0.108,0.182 -0.218,0.359 -0.329,0.533c0.698,-0.766 2.044,-2.209 2.756,-2.913c-1.527,3.633 -2.86,7.585 -4.418,11.165c0.543,-0.604 1.081,-1.226 1.62,-1.844c-1.204,3.553 -2.315,7.331 -3.774,10.501c0.679,-0.612 1.34,-1.303 1.99,-2.031c-0.984,3.149 -2.006,6.316 -3.329,8.938c0.518,-0.416 1.026,-0.887 1.521,-1.402c-1.243,3.97 -2.636,7.506 -4.66,9.938c0.808,-0.288 1.613,-0.644 2.396,-1.136c-1.532,3.542 -3.449,6.795 -5.447,9.237c-0.063,0.077 -0.126,0.152 -0.19,0.225c0.924,-0.322 1.848,-0.645 2.771,-0.975c-1.48,2.75 -2.951,5.532 -4.525,8.066c0.605,-0.314 1.21,-0.623 1.817,-0.926c-1.386,3.121 -2.76,6.277 -4.27,9.161c0.669,-0.384 1.339,-0.761 2.011,-1.128c-1.495,3.571 -2.936,7.287 -4.696,10.36c0.826,-0.49 1.653,-0.975 2.482,-1.447c-1.447,3.604 -2.881,7.288 -4.619,10.353c0.817,-0.58 1.634,-1.156 2.453,-1.723c-1.439,3.957 -2.846,8.071 -4.695,11.316c-0.116,0.204 -0.236,0.401 -0.358,0.593c0.964,-0.733 1.929,-1.462 2.895,-2.181c-1.219,3.464 -2.483,6.88 -3.911,10.012c0.679,-0.511 1.358,-1.022 2.037,-1.528c-1.454,4.079 -2.897,8.263 -4.765,11.637c0.758,-0.57 1.516,-1.139 2.275,-1.703c-1.499,4.128 -2.979,8.369 -4.883,11.799c-0.392,0.706 -0.814,1.34 -1.244,1.95c1.234,-0.917 2.369,-1.74 3.61,-2.62c-1.495,3.96 -2.963,8.025 -4.769,11.445c0.908,-0.745 1.818,-1.481 2.73,-2.205c-1.45,4.16 -2.836,8.499 -4.663,12.049c-1.402,2.725 -3.087,4.768 -4.738,6.809c-0.109,0.134 -0.218,0.268 -0.327,0.401c-0.012,0.382 -0.036,0.768 -0.067,1.145c0.084,-0.389 0.192,-0.757 0.324,-1.089c0.302,-0.756 0.722,-1.264 1.131,-1.753c2.086,-2.502 4.307,-4.502 6.494,-6.61c-1.299,4.346 -2.525,8.863 -4.212,12.668c-0.19,0.429 -0.403,0.859 -0.61,1.256c0.89,-0.987 2.086,-2.292 2.979,-3.246c-1.198,4.435 -2.316,9.038 -3.906,12.978c-0.58,1.436 -1.256,2.698 -1.939,3.93c1.459,-1.721 2.935,-3.384 4.419,-5.016c-1.148,4.439 -2.211,9.044 -3.749,13.011c-0.05,0.129 -0.101,0.257 -0.153,0.383c0.682,-0.795 1.365,-1.584 2.051,-2.362c-1.081,4.394 -2.072,8.95 -3.538,12.901c-0.081,0.217 -0.165,0.431 -0.25,0.641c0.733,-0.89 1.47,-1.769 2.21,-2.635c-0.936,4.016 -1.786,8.178 -3.076,11.807c-0.066,0.185 -0.134,0.368 -0.204,0.547c0.742,-0.931 1.489,-1.851 2.24,-2.756c-0.842,3.811 -1.6,7.759 -2.778,11.22c-0.023,0.067 -0.046,0.134 -0.07,0.2c0.653,-0.841 1.308,-1.672 1.967,-2.491c-0.783,3.751 -1.479,7.634 -2.592,11.06c-0.124,0.382 -0.266,0.768 -0.406,1.127c0.647,-0.937 1.49,-2.131 2.144,-3.038c-0.688,3.827 -1.283,7.776 -2.299,11.321c-0.143,0.499 -0.314,1.012 -0.481,1.479c0.615,-0.928 1.412,-2.105 2.035,-3.003c-0.605,3.663 -1.116,7.438 -2.034,10.853c-0.122,0.455 -0.268,0.922 -0.412,1.351c0.698,-1.004 1.604,-2.27 2.312,-3.235c-0.633,3.726 -1.166,7.575 -2.118,11.042c-0.797,2.901 -1.94,5.347 -3.067,7.729c-0,0 -0.118,-0.455 -0.176,-0.684Zm3.417,-66.552c0.004,0.388 -0.004,0.78 -0.019,1.167c0.035,-0.214 0.077,-0.424 0.127,-0.626c-0.036,-0.18 -0.072,-0.36 -0.108,-0.541Zm7.766,-56.004c-0.032,0.354 -0.075,0.707 -0.123,1.053c0.055,-0.192 0.116,-0.376 0.183,-0.551c-0.02,-0.167 -0.04,-0.335 -0.06,-0.502Zm2.459,-10.43c-0.021,0.179 -0.044,0.357 -0.069,0.534c0.03,-0.104 0.062,-0.206 0.095,-0.306c-0.008,-0.076 -0.017,-0.152 -0.026,-0.228Zm26.246,-94.207c-0.009,0.039 -0.017,0.078 -0.026,0.117c0.009,-0.023 0.019,-0.046 0.028,-0.069c-0.001,-0.016 -0.002,-0.032 -0.002,-0.048Zm5.219,-18.508c-0.048,0.182 -0.098,0.362 -0.149,0.542c0.043,-0.104 0.088,-0.206 0.133,-0.305c0.006,-0.079 0.011,-0.158 0.016,-0.237Zm-2.525,9.887c-0.032,0.029 -0.063,0.058 -0.095,0.087c-0.022,0.125 -0.045,0.249 -0.069,0.373c0.051,-0.158 0.106,-0.312 0.164,-0.46Zm-10.298,30.433c0,-0.001 0,-0.001 0,-0.002c-0,0.001 -0,0.003 -0.001,0.004c0.001,-0.001 0.001,-0.002 0.001,-0.002Z" style="fill:url(#_Linear4);"/>
    </g>
    <defs>
        <linearGradient id="_Linear1" x1="0" y1="0" x2="1" y2="0" gradientUnits="userSpaceOnUse" gradientTransform="matrix(-8.60457,-354.18,1166.86,-28.3482,86.5618,377.385)"><stop offset="0" style="stop-color:rgb(51,133,47);stop-opacity:1"/><stop offset="0.35" style="stop-color:rgb(187,173,45);stop-opacity:1"/><stop offset="1" style="stop-color:rgb(210,180,45);stop-opacity:1"/></linearGradient>
        <linearGradient id="_Linear2" x1="0" y1="0" x2="1" y2="0" gradientUnits="userSpaceOnUse" gradientTransform="matrix(-8.60457,-354.18,1166.86,-28.3482,86.5618,377.385)"><stop offset="0" style="stop-color:rgb(51,133,47);stop-opacity:1"/><stop offset="0.35" style="stop-color:rgb(187,173,45);stop-opacity:1"/><stop offset="1" style="stop-color:rgb(210,180,45);stop-opacity:1"/></linearGradient>
        <linearGradient id="_Linear3" x1="0" y1="0" x2="1" y2="0" gradientUnits="userSpaceOnUse" gradientTransform="matrix(-8.60457,-354.18,1166.86,-28.3482,86.5618,377.385)"><stop offset="0" style="stop-color:rgb(51,133,47);stop-opacity:1"/><stop offset="0.35" style="stop-color:rgb(187,173,45);stop-opacity:1"/><stop offset="1" style="stop-color:rgb(210,180,45);stop-opacity:1"/></linearGradient>
        <linearGradient id="_Linear4" x1="0" y1="0" x2="1" y2="0" gradientUnits="userSpaceOnUse" gradientTransform="matrix(-8.60457,-354.18,1166.86,-28.3482,86.5618,377.385)"><stop offset="0" style="stop-color:rgb(51,133,47);stop-opacity:1"/><stop offset="0.35" style="stop-color:rgb(187,173,45);stop-opacity:1"/><stop offset="1" style="stop-color:rgb(210,180,45);stop-opacity:1"/></linearGradient>
    </defs>
</svg>
