<?xml version="1.0" encoding="UTF-8" standalone="no"?>
<!DOCTYPE svg PUBLIC "-//W3C//DTD SVG 1.1//EN" "http://www.w3.org/Graphics/SVG/1.1/DTD/svg11.dtd">
<svg width="100%" height="100%" viewBox="0 0 145 407" version="1.1" xmlns="http://www.w3.org/2000/svg" xmlns:xlink="http://www.w3.org/1999/xlink" xml:space="preserve" xmlns:serif="http://www.serif.com/" style="fill-rule:evenodd;clip-rule:evenodd;stroke-linejoin:round;stroke-miterlimit:2;">
    <g transform="matrix(1,0,0,1,-1187,-353)">
        <g transform="matrix(1.88698,0,0,1.88698,-1436.39,-916.48)">
            <g id="Tassel">
                <g transform="matrix(-0.369711,0,0,0.782033,1937.02,391.293)">
                    <path d="M1354.79,623.71C1353.8,620.723 1352.54,617.791 1351.97,614.678C1351.35,611.258 1351.57,607.76 1351.81,604.314C1352.41,605.299 1353.7,607.41 1354.3,608.406C1354.28,608.311 1354.26,608.216 1354.24,608.121C1353.56,604.93 1353.74,601.636 1353.89,598.403C1354.79,599.726 1355.68,601.05 1356.57,602.379C1356.42,601.931 1356.28,601.442 1356.19,600.98C1355.51,597.738 1355.77,594.389 1355.99,591.113C1357.16,592.851 1358.35,594.581 1359.53,596.318C1359.25,595.496 1358.99,594.662 1358.85,593.804C1358.31,590.637 1358.74,587.398 1359.11,584.239C1359.81,585.342 1360.51,586.442 1361.21,587.538C1361.2,587.519 1361.2,587.499 1361.2,587.48C1360.69,584.335 1361.17,581.125 1361.62,578.005C1362.08,578.753 1362.54,579.498 1363.01,580.241C1362.83,577.244 1363.25,574.243 1363.8,571.305C1364.25,572.079 1364.7,572.851 1365.16,573.619C1364.98,570.335 1365.78,567.106 1366.57,563.945C1367.75,566.21 1368.98,568.425 1370.26,570.636C1369.88,569.434 1369.55,568.2 1369.48,566.937C1369.28,563.591 1370.23,560.279 1371.04,557.071C1371.94,558.907 1372.49,559.969 1373.45,561.777C1373.29,561.031 1373.16,560.274 1373.13,559.509C1373.01,556.225 1373.94,552.988 1374.74,549.837C1375.74,552.017 1376.16,552.888 1377.23,555.044C1377.08,554.206 1376.97,553.359 1376.98,552.507C1377.01,549.274 1378,546.125 1378.86,543.041C1379.53,544.71 1379.83,545.458 1380.53,547.117C1380.49,546.421 1380.47,545.722 1380.53,545.026C1380.81,541.854 1381.97,538.828 1383.03,535.855C1383.38,537.02 1383.74,538.184 1384.1,539.345C1384.11,539.296 1384.11,539.248 1384.12,539.199C1384.52,536.101 1385.77,533.186 1386.99,530.337C1387.48,532.312 1387.99,534.273 1388.5,536.244C1388.44,535.215 1388.41,534.176 1388.56,533.153C1388.99,530.107 1390.38,527.319 1391.68,524.569C1392.15,526.401 1392.64,528.227 1393.13,530.054C1393.12,529.259 1393.15,528.46 1393.3,527.676C1393.84,524.682 1395.28,521.927 1396.63,519.237C1396.86,520.209 1397.1,521.182 1397.34,522.153C1398.12,519.582 1399.3,517.125 1400.62,514.794C1400.92,516.007 1401.19,517.226 1401.47,518.444C1401.52,518.077 1401.6,517.697 1401.69,517.339C1402.42,514.587 1404.06,512.193 1405.58,509.826C1405.75,510.832 1405.93,511.837 1406.12,512.839C1406.17,512.69 1406.22,512.542 1406.28,512.396C1407.33,509.74 1409.16,507.444 1410.83,505.168C1410.89,506.097 1410.95,507.026 1411.02,507.954C1412.21,505.389 1413.99,503.129 1415.67,500.877C1415.69,501.877 1415.72,502.876 1415.76,503.875C1417.03,501.366 1418.76,499.116 1420.44,496.873C1420.42,498.85 1420.42,498.974 1420.45,500.941C1420.59,500.592 1420.75,500.232 1420.93,499.899C1422.35,497.213 1424.42,494.907 1426.33,492.567C1426.09,494.649 1426.08,494.748 1425.88,496.828C1426.03,496.448 1426.2,496.052 1426.39,495.689C1427.82,492.967 1429.85,490.606 1431.74,488.21C1431.49,489.853 1431.27,491.493 1431.08,493.144C1431.27,492.624 1431.48,492.109 1431.73,491.613C1433.23,488.639 1435.45,486.441 1437.77,484.094C1437.55,485.361 1437.35,486.632 1437.17,487.905C1437.24,487.803 1437.3,487.702 1437.37,487.603C1439.3,484.843 1441.88,482.591 1444.31,480.301C1444.08,481.165 1443.86,482.032 1443.65,482.902C1445.51,480.659 1447.61,478.623 1449.7,476.602C1449.26,478.212 1448.86,479.84 1448.48,481.466C1448.77,480.917 1449.07,480.376 1449.42,479.865C1451.21,477.265 1453.54,475.092 1455.73,472.835C1455.29,474.54 1455.22,474.884 1454.84,476.607C1455.17,476.106 1455.51,475.614 1455.88,475.147C1457.81,472.731 1460.17,470.698 1462.32,468.488C1461.79,470.222 1461.27,471.96 1460.74,473.694C1461.03,473.191 1461.33,472.694 1461.66,472.225C1463.14,470.163 1464.97,468.384 1466.61,466.451C1466.39,467.416 1466.18,468.38 1465.95,469.343C1467.33,467.297 1468.94,465.426 1470.37,463.419C1470.01,465.707 1469.76,468.032 1469.14,470.268C1468.98,470.847 1468.58,471.316 1468.13,471.702C1468.25,471.636 1468.38,471.577 1468.51,471.527C1469.07,471.311 1469.67,471.287 1470.27,471.271C1473.1,471.196 1475.93,471.39 1478.75,471.588C1476.28,472.457 1473.8,473.347 1471.27,474.029C1472.36,474.062 1473.45,474.105 1474.54,474.162C1471.86,475.109 1469.21,476.177 1466.45,476.857C1465.97,476.975 1465.43,477.08 1464.94,477.166C1467.05,477.152 1469.16,477.156 1471.27,477.203C1468.02,478.387 1464.83,479.753 1461.49,480.657C1461.28,480.713 1461.08,480.764 1460.87,480.814C1463.12,480.572 1463.63,480.512 1465.87,480.299C1462.83,481.793 1459.82,483.36 1456.66,484.597C1457.78,484.456 1458.89,484.309 1460,484.164C1456.95,485.753 1453.9,487.366 1450.7,488.665C1452.13,488.475 1453.56,488.269 1454.99,488.055C1452.21,489.536 1449.41,490.983 1446.53,492.243C1447.58,492.067 1448.62,491.881 1449.66,491.688C1446.41,493.56 1443.14,495.461 1439.63,496.815C1440.92,496.64 1442.21,496.44 1443.49,496.223C1440.21,498.055 1436.88,499.939 1433.28,501.073C1433.16,501.109 1433.05,501.144 1432.93,501.177C1434.44,501.065 1435.94,500.905 1437.43,500.708C1434.82,502.068 1432.15,503.288 1429.38,504.285C1430.26,504.23 1431.15,504.233 1432.03,504.141C1429.65,505.358 1427.24,506.516 1424.78,507.559C1425.8,507.438 1426.83,507.334 1427.86,507.253C1425.12,508.626 1422.41,510.036 1419.59,511.232C1420.9,510.992 1422.23,510.773 1423.55,510.585C1420.71,512.061 1418.02,513.678 1415.26,515.277C1416.57,514.893 1417.89,514.524 1419.22,514.178C1416.45,516.334 1413.79,518.647 1410.81,520.507C1410.61,520.631 1410.41,520.75 1410.21,520.867C1411.66,520.378 1413.38,519.814 1414.84,519.354C1412.57,521.337 1410.31,523.335 1407.93,525.185C1409,524.816 1410.07,524.448 1411.14,524.087C1408.52,526.5 1405.97,529.024 1403.03,531.055C1404.19,530.65 1405.36,530.24 1406.53,529.833C1403.94,532.32 1401.41,534.922 1398.43,536.952C1397.79,537.388 1397.12,537.776 1396.45,538.146C1398.3,537.562 1400.12,536.962 1401.96,536.343C1399.46,538.766 1396.96,541.248 1394.09,543.235C1396.29,542.51 1396.15,542.551 1398.34,541.784C1395.87,544.334 1393.42,546.873 1390.55,548.973C1388.24,550.657 1385.62,551.859 1383.03,553.044C1382.85,553.126 1382.67,553.207 1382.5,553.288C1382.45,553.519 1382.38,553.751 1382.3,553.975C1382.47,553.732 1382.67,553.512 1382.89,553.318C1383.43,552.845 1384.1,552.552 1384.75,552.258C1388.08,550.751 1391.53,549.559 1394.92,548.217C1392.71,550.814 1390.54,553.592 1387.92,555.797C1387.6,556.062 1387.25,556.326 1386.92,556.567C1388.47,555.89 1390.03,555.209 1391.58,554.533C1389.55,557.306 1387.57,560.167 1384.97,562.451C1383.89,563.399 1382.69,564.189 1381.48,564.951C1384,563.864 1386.52,562.762 1389.03,561.637C1386.96,564.526 1384.9,567.468 1382.19,569.804C1382.1,569.888 1382,569.97 1381.9,570.052C1383.69,569.281 1383.85,569.215 1385.62,568.429C1383.43,571.429 1381.29,574.559 1378.53,577.082C1378.36,577.238 1378.19,577.39 1378.01,577.538C1380.05,576.621 1380.35,576.484 1382.36,575.548C1380.35,578.484 1378.38,581.494 1375.74,583.921C1375.59,584.057 1375.43,584.19 1375.28,584.32C1377.37,583.385 1377.9,583.142 1379.97,582.188C1378.02,585.067 1376.09,587.999 1373.5,590.362C1373.45,590.412 1373.39,590.462 1373.34,590.511C1375.14,589.71 1375.9,589.367 1377.69,588.553C1375.7,591.455 1373.71,594.399 1371.09,596.778C1370.77,597.072 1370.41,597.365 1370.06,597.632C1371.74,596.839 1373.42,596.041 1375.1,595.239C1373.11,598.247 1371.13,601.295 1368.51,603.803C1368.1,604.193 1367.63,604.589 1367.19,604.941C1368.86,604.142 1370.53,603.345 1372.2,602.547C1370.2,605.469 1368.23,608.432 1365.68,610.913C1365.31,611.274 1364.88,611.642 1364.48,611.972C1366.82,610.893 1367.92,610.392 1370.27,609.331C1367.99,612.342 1365.76,615.409 1363.02,618.03C1360.57,620.383 1357.73,622.292 1354.98,624.266C1354.98,624.266 1354.85,623.896 1354.79,623.71ZM1371.77,574.613C1371.74,574.875 1371.69,575.14 1371.63,575.395C1371.72,575.246 1371.82,575.105 1371.93,574.971C1371.88,574.852 1371.83,574.732 1371.77,574.613ZM1388.99,540.535C1388.92,540.737 1388.83,540.939 1388.74,541.133C1388.83,541.023 1388.93,540.92 1389.04,540.823C1389.02,540.727 1389.01,540.631 1388.99,540.535ZM1393.49,534.658C1393.44,534.759 1393.39,534.859 1393.34,534.958C1393.4,534.899 1393.45,534.841 1393.51,534.785C1393.5,534.742 1393.5,534.7 1393.49,534.658ZM1446.43,486.259C1446.41,486.281 1446.38,486.302 1446.36,486.323C1446.38,486.311 1446.4,486.299 1446.42,486.287C1446.43,486.278 1446.43,486.269 1446.43,486.259ZM1458.82,477.559C1458.73,477.64 1458.63,477.719 1458.53,477.795C1458.61,477.756 1458.69,477.718 1458.77,477.683C1458.79,477.642 1458.81,477.601 1458.82,477.559ZM1453.06,482.044C1453.01,482.05 1452.95,482.056 1452.89,482.061C1452.82,482.124 1452.76,482.186 1452.69,482.247C1452.81,482.174 1452.93,482.106 1453.06,482.044ZM1429.67,498.191C1429.67,498.19 1429.67,498.19 1429.67,498.19C1429.67,498.19 1429.67,498.191 1429.67,498.192C1429.67,498.191 1429.67,498.191 1429.67,498.191Z" style="fill:url(#_Linear1);"/>
                </g>
                <g transform="matrix(-0.435016,-0.225101,-0.232561,0.911708,2168.08,612.729)">
                    <path d="M1354.78,623.809C1353.79,621.228 1352.72,618.506 1352.34,615.749C1351.91,612.627 1352.24,609.325 1352.48,606.201C1353.16,607.447 1353.82,608.697 1354.49,609.951C1354.47,609.863 1354.45,609.776 1354.44,609.688C1353.92,606.703 1354.12,603.52 1354.25,600.511C1354.91,601.636 1355.86,603.271 1356.42,604.253C1356.3,603.826 1356.19,603.364 1356.12,602.926C1355.57,599.81 1355.79,596.486 1355.92,593.344C1356.82,594.866 1358.07,597.034 1358.84,598.399C1358.61,597.594 1358.4,596.778 1358.28,595.948C1357.83,592.828 1358.14,589.522 1358.36,586.395C1358.97,587.498 1359.57,588.605 1360.17,589.714C1360.16,589.695 1360.16,589.675 1360.16,589.655C1359.7,586.485 1360.02,583.127 1360.24,579.95C1360.66,580.722 1361.09,581.496 1361.51,582.271C1361.26,579.15 1361.46,575.948 1361.68,572.833C1362.13,573.659 1362.58,574.486 1363.03,575.315C1362.66,571.766 1362.93,568.1 1363.18,564.552C1364.56,567.063 1365.93,569.584 1367.25,572.132C1366.81,570.758 1366.4,569.357 1366.19,567.927C1365.66,564.228 1366.03,560.309 1366.29,556.603C1367.28,558.405 1368.26,560.215 1369.22,562.032C1368.99,561.168 1368.77,560.294 1368.64,559.406C1368.11,555.708 1368.47,551.785 1368.75,548.081C1369.86,550.111 1370.95,552.147 1372.03,554.191C1371.78,553.208 1371.56,552.211 1371.44,551.202C1371.03,547.484 1371.56,543.571 1371.98,539.879C1372.79,541.499 1373.59,543.123 1374.38,544.751C1374.24,543.919 1374.12,543.078 1374.08,542.234C1373.92,538.491 1374.71,534.616 1375.37,530.951C1375.97,532.37 1376.56,533.793 1377.14,535.218C1377.14,535.158 1377.14,535.098 1377.14,535.038C1377.11,531.285 1378.02,527.435 1378.8,523.787C1379.74,526.239 1380.66,528.698 1381.55,531.168C1381.32,529.878 1381.12,528.566 1381.09,527.254C1381.02,523.5 1381.89,519.641 1382.62,515.981C1383.56,518.348 1384.49,520.722 1385.37,523.108C1385.22,522.084 1385.08,521.047 1385.07,520.009C1385.01,516.254 1385.88,512.398 1386.61,508.736C1387.13,510.055 1387.65,511.379 1388.15,512.704C1388.36,509.292 1389,505.868 1389.66,502.521C1390.3,504.137 1391.15,506.345 1391.7,507.8C1391.66,507.304 1391.63,506.774 1391.63,506.275C1391.65,502.52 1392.58,498.685 1393.35,495.031C1393.9,496.485 1394.61,498.422 1395.09,499.741C1395.09,499.508 1395.09,499.275 1395.1,499.043C1395.27,495.293 1396.35,491.501 1397.25,487.879C1397.7,489.202 1398.26,490.927 1398.64,492.133C1398.88,488.495 1399.78,484.788 1400.69,481.27C1401.16,482.749 1401.69,484.214 1402.17,485.694C1402.45,482.108 1403.29,478.563 1404.42,475.157C1404.9,477.093 1405.41,479.015 1405.99,480.922C1406,480.408 1406.02,479.867 1406.09,479.355C1406.54,475.623 1408.18,471.932 1409.75,468.554C1409.93,470.482 1410.15,472.402 1410.44,474.317C1410.49,473.776 1410.56,473.208 1410.67,472.674C1411.41,468.945 1413.25,465.339 1414.96,461.982C1415,464.099 1415.09,466.215 1415.24,468.327C1415.34,467.618 1415.46,466.908 1415.64,466.215C1416.62,462.498 1418.57,458.955 1420.38,455.597C1420.3,457.261 1420.25,458.667 1420.22,460.41C1420.27,460.271 1420.31,460.132 1420.36,459.994C1421.68,456.33 1423.82,452.897 1425.8,449.567C1425.63,450.701 1425.46,451.836 1425.32,452.973C1426.78,449.82 1428.55,446.791 1430.31,443.798C1429.9,445.979 1429.51,448.162 1429.17,450.356C1429.41,449.597 1429.66,448.842 1429.96,448.105C1431.43,444.484 1433.48,441.07 1435.38,437.665C1434.99,439.508 1434.68,440.923 1434.29,442.896C1434.58,442.173 1434.89,441.453 1435.22,440.748C1436.88,437.266 1438.94,433.963 1440.82,430.6C1440.13,433.046 1439.44,435.489 1438.78,437.944C1439.05,437.21 1439.34,436.48 1439.65,435.763C1440.93,432.859 1442.48,430.069 1443.89,427.232C1443.55,428.525 1443.2,429.817 1442.86,431.111C1444,428.394 1445.3,425.742 1446.49,423.048C1445.77,425.965 1445.1,428.896 1444.37,431.812C1444.18,432.559 1443.9,433.267 1443.54,433.95C1443.62,433.845 1443.7,433.741 1443.78,433.644C1444.06,433.327 1444.38,433.144 1444.77,432.992C1446.18,432.442 1447.78,432.165 1449.26,431.899C1447.92,433.578 1446.55,435.298 1444.98,436.768C1445.62,436.635 1446.26,436.512 1446.9,436.402C1445.37,438.247 1443.77,440.244 1441.85,441.714C1441.55,441.946 1441.21,442.165 1440.88,442.359C1442.23,442.093 1443.59,441.856 1444.95,441.655C1442.98,443.864 1440.91,446.26 1438.45,447.957C1438.32,448.052 1438.17,448.143 1438.03,448.231C1439.01,447.912 1440.38,447.473 1441.46,447.147C1439.55,449.583 1437.53,452.078 1435.17,454.105C1435.98,453.878 1436.78,453.652 1437.59,453.432C1435.6,455.803 1433.51,458.196 1431.12,460.176C1432.2,459.903 1433.28,459.63 1434.36,459.365C1432.51,461.472 1430.56,463.544 1428.45,465.393C1429.26,465.15 1430.07,464.906 1430.87,464.664C1428.74,467.266 1426.52,470.004 1423.87,472.112C1424.92,471.824 1425.96,471.535 1427,471.248C1424.8,473.885 1422.51,476.752 1419.74,478.823C1419.65,478.889 1419.56,478.954 1419.47,479.018C1420.76,478.684 1422.05,478.35 1423.34,478.019C1421.44,480.316 1419.45,482.617 1417.27,484.655C1418.16,484.367 1419.06,484.077 1419.96,483.79C1418.11,486.39 1416.21,488.842 1413.83,490.981C1414.94,490.658 1416.05,490.337 1417.16,490.021C1414.79,492.744 1412.36,495.576 1409.53,497.839C1410.92,497.434 1412.31,497.032 1413.7,496.638C1411.34,499.342 1408.9,502.138 1406.1,504.403C1407.46,503.939 1408.82,503.479 1410.19,503.025C1407.85,505.935 1405.44,509.068 1402.53,511.434C1402.34,511.586 1402.15,511.733 1401.95,511.875C1403.53,511.305 1405.1,510.74 1406.68,510.183C1404.71,512.724 1402.65,515.259 1400.4,517.56C1401.49,517.169 1402.58,516.78 1403.67,516.395C1401.38,519.334 1399.04,522.472 1396.19,524.902C1397.37,524.477 1398.56,524.054 1399.75,523.636C1397.45,526.589 1395.09,529.77 1392.2,532.191C1391.59,532.704 1390.93,533.163 1390.27,533.601C1392.13,532.955 1394.01,532.319 1395.88,531.693C1393.59,534.549 1391.24,537.543 1388.45,539.944C1389.88,539.409 1391.31,538.878 1392.74,538.354C1390.49,541.334 1388.19,544.548 1385.35,547.009C1383.08,548.972 1380.32,550.446 1377.7,551.863C1377.53,551.959 1377.35,552.054 1377.17,552.148C1377.15,552.422 1377.1,552.697 1377.04,552.966C1377.19,552.685 1377.37,552.423 1377.58,552.19C1378.09,551.636 1378.76,551.289 1379.42,550.943C1382.78,549.171 1386.35,547.741 1389.83,546.229C1387.77,549.332 1385.68,552.674 1383.01,555.298C1382.69,555.606 1382.34,555.913 1382.01,556.193C1383.61,555.418 1385.22,554.649 1386.84,553.89C1384.88,557.053 1382.91,560.457 1380.32,563.155C1379.33,564.189 1378.19,565.081 1377.05,565.94C1379.48,564.737 1381.93,563.567 1384.38,562.411C1382.44,565.576 1380.46,568.979 1377.87,571.676C1377.79,571.768 1377.7,571.858 1377.61,571.947C1378.76,571.393 1379.92,570.842 1381.08,570.296C1379.15,573.425 1377.2,576.791 1374.64,579.458C1374.49,579.613 1374.34,579.763 1374.18,579.91C1374.18,579.91 1378.03,578.08 1378.03,578.08C1376.27,580.938 1374.48,584.012 1372.14,586.448C1372.02,586.58 1371.89,586.708 1371.76,586.833C1373.09,586.192 1374.42,585.557 1375.75,584.928C1374.08,587.64 1372.39,590.557 1370.17,592.868C1370.12,592.916 1370.08,592.963 1370.03,593.009C1371.23,592.433 1372.43,591.861 1373.63,591.295C1371.99,593.965 1370.32,596.835 1368.14,599.111C1367.88,599.382 1367.59,599.652 1367.31,599.9C1368.66,599.198 1370.01,598.502 1371.37,597.813C1369.8,600.538 1368.21,603.466 1366.09,605.811C1365.77,606.166 1365.4,606.525 1365.05,606.846C1366.38,606.154 1367.71,605.468 1369.05,604.791C1367.55,607.4 1366.02,610.204 1363.99,612.45C1363.7,612.774 1363.36,613.1 1363.04,613.394C1364.28,612.802 1366.29,611.854 1367.71,611.198C1366.05,613.855 1364.37,616.714 1362.17,618.974C1360.11,621.097 1357.48,622.755 1354.98,624.306C1354.98,624.306 1354.85,623.975 1354.78,623.809ZM1368.77,576.497C1368.76,576.775 1368.72,577.055 1368.67,577.329C1368.75,577.176 1368.83,577.028 1368.92,576.886C1368.87,576.756 1368.82,576.627 1368.77,576.497ZM1382.73,536.534C1382.67,536.788 1382.61,537.042 1382.53,537.289C1382.62,537.15 1382.71,537.018 1382.82,536.893C1382.79,536.774 1382.76,536.654 1382.73,536.534ZM1386.6,529.043C1386.57,529.171 1386.53,529.299 1386.5,529.426C1386.54,529.351 1386.59,529.278 1386.64,529.206C1386.63,529.152 1386.62,529.097 1386.6,529.043ZM1427.63,456.986C1427.61,457.017 1427.59,457.048 1427.57,457.079C1427.59,457.061 1427.61,457.043 1427.62,457.025C1427.62,457.012 1427.62,456.999 1427.63,456.986ZM1436.92,443.65C1436.84,443.775 1436.77,443.899 1436.69,444.021C1436.75,443.957 1436.81,443.894 1436.87,443.832C1436.88,443.771 1436.9,443.711 1436.92,443.65ZM1432.56,450.593C1432.52,450.607 1432.48,450.621 1432.44,450.634C1432.39,450.727 1432.34,450.819 1432.29,450.911C1432.37,450.802 1432.46,450.695 1432.56,450.593ZM1415.04,475.428C1415.04,475.428 1415.04,475.427 1415.04,475.427C1415.04,475.428 1415.04,475.429 1415.04,475.43C1415.04,475.429 1415.04,475.429 1415.04,475.428Z" style="fill:url(#_Linear2);"/>
                </g>
                <g transform="matrix(-0.436295,0,0,0.782033,2027.69,353.691)">
                    <path d="M1358.45,619.764C1357.3,617.597 1356.1,615.451 1355.22,613.159C1354.23,610.591 1353.63,607.893 1352.96,605.231C1353.72,606.25 1354.47,607.273 1355.21,608.302C1355.17,608.23 1355.14,608.158 1355.11,608.085C1354.04,605.631 1353.36,603.03 1352.63,600.462C1353.44,601.481 1354.25,602.503 1355.06,603.531C1354.87,603.18 1354.67,602.796 1354.51,602.434C1353.35,599.879 1352.63,597.158 1351.88,594.463C1353,595.846 1354.12,597.227 1355.23,598.62C1354.87,597.957 1354.51,597.286 1354.21,596.591C1353.11,594.044 1352.49,591.328 1351.88,588.633C1352.59,589.547 1353.31,590.459 1354.03,591.373C1354.02,591.356 1354.01,591.34 1354.01,591.324C1352.91,588.741 1352.36,585.98 1351.83,583.237C1352.33,583.878 1352.83,584.518 1353.33,585.157C1352.47,582.607 1351.97,579.952 1351.6,577.291C1352.12,577.979 1352.64,578.664 1353.16,579.347C1352.22,576.451 1351.87,573.409 1351.68,570.381C1353.14,572.455 1354.78,574.634 1356.29,576.668C1355.7,575.541 1355.13,574.394 1354.75,573.176C1353.8,570.144 1353.73,566.902 1353.89,563.756C1354.92,565.386 1355.84,566.687 1356.95,568.266C1356.66,567.557 1356.39,566.833 1356.21,566.086C1355.48,563.008 1355.88,559.749 1356.25,556.654C1357.26,558.38 1358.31,560.066 1359.38,561.751C1359.13,560.937 1358.9,560.109 1358.8,559.26C1358.41,556.099 1359.07,552.904 1359.66,549.813C1360.64,551.756 1360.76,551.967 1361.8,553.888C1361.68,553.193 1361.59,552.491 1361.59,551.785C1361.56,548.577 1362.52,545.434 1363.36,542.371C1363.83,543.564 1364.31,544.752 1364.8,545.936C1364.8,545.886 1364.8,545.835 1364.8,545.785C1364.93,542.579 1365.98,539.471 1366.9,536.426C1367.6,538.505 1368.31,540.506 1369.06,542.57C1368.88,541.493 1368.75,540.405 1368.78,539.311C1368.87,536.137 1369.83,533.043 1370.68,530.011C1371.34,532.002 1372,533.9 1372.69,535.881C1372.58,535.034 1372.51,534.18 1372.54,533.326C1372.64,530.196 1373.57,527.145 1374.44,524.165C1374.76,525.233 1375.09,526.3 1375.41,527.366C1375.77,524.604 1376.53,521.906 1377.41,519.272C1377.97,521.47 1377.94,521.349 1378.49,523.433C1378.49,523.037 1378.52,522.62 1378.56,522.226C1378.9,519.207 1380.06,516.328 1381.32,513.59C1381.59,515.383 1381.55,515.361 1381.94,517.141C1381.97,516.963 1382.01,516.786 1382.05,516.611C1382.8,513.513 1384.55,510.693 1385.83,507.805C1385.86,509.035 1385.87,510.269 1386,511.493C1386.99,508.252 1388.24,505.127 1389.51,501.985C1389.54,503.295 1389.58,504.605 1389.65,505.913C1390.46,502.72 1391.69,499.644 1392.92,496.598C1392.95,498.304 1392.97,500.021 1393.03,501.727C1393.12,501.271 1393.23,500.794 1393.35,500.346C1394.27,497.023 1395.79,493.901 1397.32,490.826C1397.22,492.535 1397.11,494.242 1397.02,495.951C1397.13,495.474 1397.27,494.972 1397.41,494.506C1398.46,491.217 1400.14,488.172 1401.8,485.165C1401.66,487.053 1401.47,488.92 1401.27,490.803C1401.45,490.18 1401.64,489.561 1401.87,488.955C1403.09,485.722 1404.92,482.765 1406.67,479.803C1406.59,480.981 1406.37,482.919 1406.22,484.089C1406.27,483.969 1406.33,483.85 1406.38,483.731C1407.85,480.615 1409.86,477.807 1411.73,474.927C1411.63,475.942 1411.5,476.953 1411.34,477.959C1412.78,475.365 1414.39,472.907 1415.56,470.168C1415.48,472.077 1415.23,473.967 1414.87,475.843C1415.09,475.188 1415.3,474.532 1415.54,473.884C1416.65,470.866 1417.92,467.908 1418.93,464.852C1419.02,466.236 1418.99,467.877 1418.87,469.259C1419.05,468.649 1419.23,468.039 1419.43,467.436C1420.38,464.572 1421.55,461.789 1422.69,458.994C1422.82,461.005 1422.71,462.989 1422.44,464.983C1422.6,464.389 1422.76,463.795 1422.95,463.21C1423.73,460.852 1424.79,458.613 1425.91,456.399C1425.93,457.433 1425.89,458.468 1425.8,459.499C1426.63,457.303 1427.77,455.247 1429,453.254C1428.95,455.564 1428.73,457.866 1428.14,460.104C1427.99,460.696 1427.68,461.234 1427.32,461.726C1427.4,461.643 1427.49,461.565 1427.59,461.494C1427.95,461.224 1428.37,461.105 1428.8,461.012C1430.61,460.625 1432.47,460.523 1434.32,460.461C1432.46,461.489 1430.69,462.66 1428.89,463.786C1429.55,463.676 1430.2,463.581 1430.86,463.503C1429,464.79 1427.31,466.285 1425.47,467.594C1425.19,467.794 1424.88,467.996 1424.58,468.177C1425.74,467.83 1426.87,467.525 1428.05,467.273C1425.97,469.001 1424.12,470.976 1422.06,472.712C1421.95,472.807 1421.83,472.899 1421.72,472.99C1422.35,472.65 1423.69,471.946 1424.33,471.633C1422.47,473.756 1420.75,475.997 1418.82,478.053C1419.39,477.724 1419.95,477.39 1420.51,477.058C1418.73,479.328 1416.98,481.648 1414.95,483.711C1415.72,483.3 1416.48,482.864 1417.23,482.417C1415.59,484.535 1413.9,486.63 1411.98,488.509C1412.6,488.184 1413.21,487.84 1413.82,487.48C1411.84,490.028 1409.74,492.767 1407.01,494.554C1407.9,494.376 1408.78,494.055 1409.61,493.682C1407.56,496.005 1405.24,498.215 1402.73,500.048C1402.66,500.102 1402.58,500.155 1402.51,500.207C1403.49,499.954 1404.48,499.717 1405.47,499.502C1403.69,501.326 1401.99,503.218 1400.15,504.98C1400.83,504.736 1401.51,504.498 1402.19,504.268C1400.62,506.35 1399.11,508.489 1397.36,510.431C1398.16,510.138 1398.96,509.847 1399.76,509.563C1398.26,511.796 1396.08,513.73 1393.92,515.32C1395.03,514.98 1396.14,514.643 1397.25,514.315C1395.21,516.443 1393.13,518.553 1390.76,520.325C1391.91,519.911 1393.07,519.497 1394.23,519.089C1392.06,521.506 1389.91,523.988 1387.32,525.975C1387.15,526.105 1386.97,526.231 1386.8,526.354C1388.18,525.826 1389.56,525.295 1390.95,524.768C1389.11,526.913 1387.24,529.039 1385.21,531.012C1386.17,530.641 1387.13,530.268 1388.09,529.896C1385.98,532.435 1383.93,535.079 1381.41,537.243C1382.44,536.841 1383.48,536.438 1384.51,536.036C1382.54,538.51 1380.67,541.262 1378.31,543.397C1377.83,543.836 1377.3,544.224 1376.76,544.589C1379.01,543.79 1378.8,543.82 1381.2,542.914C1379.32,545.37 1377.68,547.903 1375.28,549.9C1376.48,549.467 1377.68,549.02 1378.87,548.548C1377.05,551.197 1375.1,553.819 1372.53,555.804C1370.29,557.538 1367.63,558.682 1365.06,559.828C1364.88,559.907 1364.7,559.986 1364.53,560.064C1364.5,560.292 1364.46,560.521 1364.4,560.744C1364.55,560.504 1364.73,560.288 1364.94,560.1C1365.46,559.626 1366.14,559.347 1366.78,559.067C1370.01,557.654 1373.36,556.521 1376.61,555.151C1374.8,557.86 1372.92,560.573 1370.41,562.691C1370.11,562.948 1369.77,563.201 1369.44,563.431C1371.14,562.741 1372.37,562.24 1374.06,561.527C1372.24,564.24 1370.39,566.959 1367.97,569.183C1367.03,570.05 1365.97,570.777 1364.91,571.491C1367.24,570.478 1369.55,569.535 1371.89,568.562C1370.1,571.196 1368.43,573.951 1366.18,576.233C1366.11,576.31 1366.03,576.385 1365.95,576.459C1367.01,575.992 1368.06,575.532 1369.11,575.077C1367.52,577.661 1366.09,580.386 1364.09,582.693C1363.98,582.822 1363.86,582.948 1363.74,583.071C1364.82,582.544 1365.9,582.029 1366.99,581.526C1365.72,583.883 1364.63,586.368 1363,588.506C1362.92,588.616 1362.83,588.724 1362.74,588.83C1363.77,588.273 1364.81,587.734 1365.85,587.208C1364.81,589.447 1363.95,591.797 1362.55,593.849C1362.53,593.888 1362.5,593.928 1362.47,593.967C1363.33,593.464 1364.2,592.975 1365.07,592.499C1364.19,594.704 1363.48,597.009 1362.23,599.049C1362.09,599.275 1361.93,599.505 1361.77,599.717C1362.61,599.128 1363.58,598.475 1364.44,597.922C1363.75,600.178 1363.21,602.515 1362.14,604.631C1361.99,604.926 1361.8,605.231 1361.62,605.508C1362.38,604.93 1363.27,604.277 1364.04,603.731C1363.47,605.896 1363.04,608.127 1362.07,610.164C1361.95,610.433 1361.79,610.71 1361.63,610.964C1362.47,610.346 1363.48,609.633 1364.34,609.049C1363.72,611.257 1363.22,613.533 1362.18,615.592C1361.3,617.315 1359.98,618.772 1358.66,620.169C1358.66,620.169 1358.52,619.899 1358.45,619.764ZM1358.35,580.284C1358.38,580.513 1358.4,580.746 1358.4,580.976C1358.44,580.849 1358.49,580.724 1358.55,580.606C1358.48,580.499 1358.42,580.392 1358.35,580.284ZM1370.04,547.05C1369.99,547.263 1369.92,547.475 1369.84,547.68C1369.93,547.564 1370.02,547.454 1370.12,547.35C1370.1,547.25 1370.07,547.15 1370.04,547.05ZM1373.62,540.802C1373.59,540.91 1373.56,541.016 1373.53,541.122C1373.57,541.059 1373.61,540.998 1373.66,540.938C1373.65,540.893 1373.63,540.848 1373.62,540.802ZM1413.01,481.57C1412.99,481.598 1412.97,481.626 1412.95,481.654C1412.97,481.637 1412.98,481.62 1413,481.603C1413,481.592 1413,481.581 1413.01,481.57ZM1421.17,469.627C1421.11,469.733 1421.05,469.838 1420.98,469.943C1421.03,469.886 1421.08,469.83 1421.12,469.775C1421.14,469.726 1421.15,469.676 1421.17,469.627ZM1417.46,475.693C1417.43,475.71 1417.4,475.726 1417.37,475.743C1417.32,475.824 1417.28,475.906 1417.23,475.987C1417.31,475.887 1417.38,475.788 1417.46,475.693ZM1400,497.012C1400,497.011 1400,497.011 1400,497.011C1399.99,497.012 1399.99,497.012 1399.99,497.013C1399.99,497.013 1399.99,497.012 1400,497.012Z" style="fill:url(#_Linear3);"/>
                </g>
                <g transform="matrix(0.444708,0,0,0.89551,831.186,332.838)">
                    <path d="M1358.45,619.764C1357.36,617.626 1356.24,615.472 1355.54,613.166C1354.75,610.601 1354.47,607.915 1354.18,605.259C1354.8,606.277 1355.42,607.298 1356.04,608.321C1356.01,608.249 1355.99,608.177 1355.96,608.105C1355.19,605.642 1354.9,603.059 1354.6,600.507C1355.25,601.523 1355.89,602.543 1356.53,603.565C1356.4,603.213 1356.27,602.833 1356.16,602.472C1355.4,599.893 1355.16,597.196 1354.9,594.532C1354.9,594.532 1357.45,598.671 1357.45,598.671C1357.2,598.007 1356.97,597.337 1356.8,596.65C1356.15,594.063 1356.04,591.377 1355.9,588.725C1356.43,589.632 1356.95,590.541 1357.46,591.451C1357.46,591.435 1357.46,591.419 1357.45,591.402C1356.84,588.767 1356.78,586.04 1356.69,583.348C1357.05,583.984 1357.4,584.621 1357.76,585.258C1357.34,582.668 1357.26,580.038 1357.22,577.42C1357.6,578.1 1357.98,578.783 1358.35,579.466C1357.85,576.514 1357.85,573.506 1357.86,570.522C1358.99,572.598 1360.1,574.68 1361.18,576.78C1360.8,575.639 1360.43,574.488 1360.21,573.301C1359.64,570.204 1359.75,567.027 1359.83,563.894C1360.62,565.386 1361.4,566.884 1362.17,568.385C1361.96,567.669 1361.78,566.946 1361.65,566.21C1361.13,563.105 1361.3,559.931 1361.43,556.803C1362.3,558.484 1363.16,560.171 1364.01,561.865C1363.8,561.048 1363.61,560.224 1363.51,559.387C1363.12,556.266 1363.43,553.106 1363.69,549.989L1365.58,554.032C1365.46,553.341 1365.35,552.645 1365.31,551.945C1365.13,548.807 1365.67,545.679 1366.15,542.591C1366.61,543.77 1367.07,544.951 1367.53,546.134C1367.53,546.084 1367.53,546.035 1367.53,545.985C1367.47,542.843 1368.12,539.739 1368.72,536.672C1369.44,538.708 1370.16,540.749 1370.85,542.798C1370.67,541.726 1370.51,540.646 1370.49,539.557C1370.42,536.416 1371.08,533.31 1371.66,530.241C1372.38,532.208 1373.09,534.179 1373.77,536.158C1373.65,535.308 1373.55,534.454 1373.54,533.595C1373.5,530.454 1374.19,527.356 1374.81,524.294C1375.2,525.392 1375.59,526.491 1375.97,527.591C1376.16,524.763 1376.7,521.972 1377.28,519.202C1377.28,519.202 1378.8,523.588 1378.8,523.588C1378.78,523.178 1378.76,522.74 1378.77,522.329C1378.84,519.19 1379.63,516.12 1380.35,513.081C1380.5,513.55 1381.45,516.523 1381.6,516.995C1381.61,516.803 1381.61,516.612 1381.63,516.42C1381.85,513.29 1382.78,510.261 1383.62,507.254C1383.92,508.436 1384.22,509.621 1384.51,510.807C1384.81,507.782 1385.65,504.843 1386.43,501.917C1386.74,503.142 1387.04,504.37 1387.33,505.599C1387.65,502.721 1388.4,499.912 1389.12,497.115C1389.52,498.705 1389.91,500.306 1390.28,501.901C1390.3,501.491 1390.33,501.05 1390.37,500.642C1390.71,497.765 1391.64,495.004 1392.49,492.249C1392.81,493.809 1393.13,495.38 1393.43,496.944C1393.44,496.527 1393.46,496.074 1393.51,495.66C1393.8,492.921 1394.66,490.295 1395.47,487.678C1395.85,489.353 1396.22,491.064 1396.58,492.743C1396.58,492.209 1396.59,491.673 1396.64,491.141C1396.9,488.509 1397.74,485.992 1398.54,483.488C1398.85,484.744 1399.16,486 1399.47,487.256C1399.48,487.155 1399.49,487.055 1399.51,486.954C1399.9,484.386 1400.94,481.985 1401.94,479.608C1402.13,480.475 1402.31,481.342 1402.5,482.208C1403.1,479.933 1404.03,477.752 1404.8,475.535C1405.12,477.172 1405.44,478.808 1405.76,480.443C1405.77,479.882 1405.79,479.32 1405.87,478.762C1406.23,475.918 1407.26,473.18 1408.38,470.559C1408.6,472.539 1408.58,472.382 1408.86,474.504C1408.97,473.93 1409.09,473.359 1409.27,472.801C1410.28,469.562 1412.22,466.657 1414.28,464C1413.82,465.946 1413.47,467.876 1413.2,469.856C1413.4,469.24 1413.62,468.632 1413.9,468.048C1415.31,465.127 1417.52,462.611 1419.75,460.301C1419.28,461.365 1418.85,462.444 1418.45,463.536C1420.45,460.665 1423.08,458.237 1425.75,456C1424.17,458.389 1422.84,460.926 1421.53,463.468C1421.17,464.151 1420.67,464.754 1420.15,465.316C1420.28,465.209 1420.41,465.108 1420.55,465.013C1421.07,464.652 1421.65,464.426 1422.26,464.231C1424.44,463.519 1426.72,463.085 1429.03,463.094C1426.68,464.273 1424.45,465.667 1422.21,467.038C1423.04,466.829 1423.87,466.651 1424.72,466.524C1422.38,468.052 1420.23,469.845 1417.95,471.45C1417.59,471.704 1417.17,471.969 1416.8,472.202C1418.32,471.629 1419.88,471.093 1421.45,470.704C1419.04,472.639 1416.92,474.895 1414.55,476.874C1414.42,476.981 1414.29,477.086 1414.16,477.189C1414.99,476.736 1416.6,475.882 1417.44,475.466C1415.62,477.616 1414.04,479.954 1412.18,482.073C1412.83,481.716 1413.47,481.347 1414.11,480.981C1412.67,483.084 1411.35,485.32 1409.61,487.196C1410.42,486.834 1411.21,486.425 1411.98,485.994C1410.81,487.857 1409.59,489.732 1408.02,491.283C1408.63,491.037 1409.24,490.759 1409.83,490.454C1408.35,492.803 1406.69,494.896 1404.28,496.335C1405.24,496.164 1406.2,495.954 1407.13,495.663C1405.31,497.758 1403.02,499.684 1400.64,501.129C1400.57,501.174 1400.49,501.218 1400.41,501.262C1401.51,501.071 1402.62,500.88 1403.72,500.685C1401.95,502.312 1400.2,503.959 1398.32,505.458C1399.04,505.273 1399.77,505.089 1400.49,504.91C1398.84,506.757 1397.2,508.625 1395.4,510.332C1396.2,510.104 1397,509.881 1397.8,509.664C1396.02,511.777 1394.3,513.977 1392.2,515.795C1393.18,515.505 1394.17,515.218 1395.16,514.939C1393.43,517.071 1391.73,519.251 1389.65,521.065C1390.63,520.722 1391.6,520.381 1392.58,520.045C1390.86,522.387 1389.19,524.822 1386.98,526.742C1386.84,526.863 1386.7,526.98 1386.56,527.093C1387.7,526.66 1388.85,526.228 1390.01,525.802C1388.55,527.853 1387.05,529.874 1385.35,531.728C1386.15,531.425 1386.96,531.123 1387.77,530.823C1386.04,533.237 1384.32,535.713 1382.09,537.71C1383,537.372 1383.9,537.036 1384.81,536.702C1383.02,539.145 1381.25,541.655 1378.99,543.684C1378.52,544.102 1378.02,544.477 1377.5,544.838C1378.97,544.296 1380.33,543.809 1381.81,543.288C1380.02,545.631 1378.28,548.037 1376.12,550.061C1377.2,549.62 1378.29,549.184 1379.38,548.756C1377.65,551.217 1376,553.786 1373.82,555.886C1372.15,557.499 1370.14,558.708 1368.17,559.916C1368.04,559.995 1367.91,560.074 1367.78,560.153C1367.77,560.379 1367.74,560.607 1367.7,560.831C1367.8,560.6 1367.93,560.383 1368.09,560.186C1368.45,559.739 1368.95,559.438 1369.44,559.149C1371.92,557.668 1374.57,556.484 1377.18,555.237C1375.63,557.809 1374.17,560.482 1372.16,562.734C1371.93,562.988 1371.68,563.242 1371.43,563.477C1372.49,562.893 1373.92,562.121 1374.98,561.556C1373.55,564.181 1372.22,566.904 1370.32,569.236C1369.63,570.086 1368.83,570.833 1368.01,571.562C1369.75,570.544 1371.51,569.559 1373.28,568.593C1371.91,571.22 1370.65,573.946 1368.81,576.293C1368.75,576.37 1368.69,576.445 1368.63,576.52C1369.44,576.049 1370.26,575.583 1371.08,575.122C1369.79,577.722 1368.61,580.418 1366.86,582.757C1366.76,582.885 1366.66,583.012 1366.56,583.136C1367.43,582.61 1368.31,582.089 1369.19,581.577C1368.08,583.953 1367.07,586.416 1365.53,588.564C1365.45,588.674 1365.37,588.781 1365.29,588.888C1366.17,588.336 1367.06,587.792 1367.95,587.256C1366.95,589.512 1366.05,591.848 1364.64,593.896C1364.62,593.936 1364.59,593.976 1364.56,594.015C1365.34,593.517 1366.12,593.025 1366.9,592.54C1365.97,594.761 1365.14,597.058 1363.82,599.086C1363.67,599.312 1363.5,599.54 1363.33,599.753C1364.1,599.198 1365.11,598.492 1365.89,597.955C1365.07,600.22 1364.36,602.556 1363.15,604.654C1362.98,604.95 1362.77,605.253 1362.57,605.53C1363.31,604.98 1364.26,604.284 1365,603.752C1364.28,605.92 1363.67,608.154 1362.58,610.175C1362.43,610.445 1362.26,610.721 1362.09,610.975C1362.92,610.38 1364,609.631 1364.84,609.06C1364.09,611.265 1363.45,613.543 1362.32,615.595C1361.37,617.311 1360,618.759 1358.66,620.169C1358.66,620.169 1358.52,619.899 1358.45,619.764ZM1362.52,580.38C1362.53,580.609 1362.52,580.841 1362.5,581.07C1362.54,580.943 1362.59,580.819 1362.65,580.7C1362.61,580.593 1362.57,580.486 1362.52,580.38ZM1371.78,547.237C1371.74,547.447 1371.69,547.656 1371.63,547.86C1371.7,547.747 1371.77,547.638 1371.85,547.534C1371.83,547.435 1371.8,547.336 1371.78,547.237ZM1374.71,541.065C1374.68,541.171 1374.65,541.276 1374.63,541.381C1374.66,541.319 1374.7,541.259 1374.74,541.2C1374.73,541.155 1374.72,541.11 1374.71,541.065ZM1405.98,485.315C1405.97,485.338 1405.96,485.361 1405.95,485.384C1405.96,485.371 1405.98,485.357 1405.99,485.343C1405.99,485.334 1405.99,485.325 1405.98,485.315ZM1412.2,474.362C1412.15,474.47 1412.09,474.577 1412.03,474.683C1412.08,474.621 1412.13,474.561 1412.18,474.503C1412.19,474.456 1412.2,474.409 1412.2,474.362ZM1409.19,480.213C1409.16,480.231 1409.12,480.248 1409.08,480.265C1409.06,480.339 1409.03,480.412 1409,480.486C1409.06,480.392 1409.12,480.301 1409.19,480.213ZM1396.92,498.223C1396.92,498.223 1396.92,498.222 1396.92,498.222C1396.92,498.223 1396.92,498.223 1396.92,498.224C1396.92,498.224 1396.92,498.223 1396.92,498.223Z" style="fill:url(#_Linear4);"/>
                </g>
            </g>
        </g>
    </g>
    <defs>
        <linearGradient id="_Linear1" x1="0" y1="0" x2="1" y2="0" gradientUnits="userSpaceOnUse" gradientTransform="matrix(12.3339,-240.011,-1672.59,-19.2102,1354.83,615.648)"><stop offset="0" style="stop-color:rgb(51,133,47);stop-opacity:1"/><stop offset="0.35" style="stop-color:rgb(187,173,45);stop-opacity:1"/><stop offset="1" style="stop-color:rgb(210,180,45);stop-opacity:1"/></linearGradient>
        <linearGradient id="_Linear2" x1="0" y1="0" x2="1" y2="0" gradientUnits="userSpaceOnUse" gradientTransform="matrix(106.487,-179.582,-1247.97,-324.602,1351.69,618.934)"><stop offset="0" style="stop-color:rgb(51,133,47);stop-opacity:1"/><stop offset="0.35" style="stop-color:rgb(187,173,45);stop-opacity:1"/><stop offset="1" style="stop-color:rgb(210,180,45);stop-opacity:1"/></linearGradient>
        <linearGradient id="_Linear3" x1="0" y1="0" x2="1" y2="0" gradientUnits="userSpaceOnUse" gradientTransform="matrix(10.4515,-240.011,-1417.33,-19.2102,1355.86,663.73)"><stop offset="0" style="stop-color:rgb(51,133,47);stop-opacity:1"/><stop offset="0.35" style="stop-color:rgb(187,173,45);stop-opacity:1"/><stop offset="1" style="stop-color:rgb(210,180,45);stop-opacity:1"/></linearGradient>
        <linearGradient id="_Linear4" x1="0" y1="0" x2="1" y2="0" gradientUnits="userSpaceOnUse" gradientTransform="matrix(-10.2538,-209.597,1390.52,-16.776,1360.32,602.91)"><stop offset="0" style="stop-color:rgb(51,133,47);stop-opacity:1"/><stop offset="0.35" style="stop-color:rgb(187,173,45);stop-opacity:1"/><stop offset="1" style="stop-color:rgb(210,180,45);stop-opacity:1"/></linearGradient>
    </defs>
</svg>
